<svg width="32" height="32" viewBox="0 0 32 32" fill="none" xmlns="http://www.w3.org/2000/svg">
<rect width="32" height="32" rx="16" fill="white"/>
<mask id="mask0_220_2878" style="mask-type:alpha" maskUnits="userSpaceOnUse" x="4" y="4" width="24" height="24">
<rect x="4" y="4" width="24" height="24" fill="#D9D9D9"/>
</mask>
<g mask="url(#mask0_220_2878)">
<path d="M23.95 25C21.8 25 19.7042 24.5208 17.6625 23.5625C15.6208 22.6042 13.8125 21.3375 12.2375 19.7625C10.6625 18.1875 9.39583 16.3792 8.4375 14.3375C7.47917 12.2958 7 10.2 7 8.05C7 7.75 7.1 7.5 7.3 7.3C7.5 7.1 7.75 7 8.05 7H12.1C12.3333 7 12.5417 7.075 12.725 7.225C12.9083 7.375 13.0167 7.56667 13.05 7.8L13.7 11.3C13.7333 11.5333 13.7292 11.7458 13.6875 11.9375C13.6458 12.1292 13.55 12.3 13.4 12.45L10.975 14.9C11.675 16.1 12.5542 17.225 13.6125 18.275C14.6708 19.325 15.8333 20.2333 17.1 21L19.45 18.65C19.6 18.5 19.7958 18.3875 20.0375 18.3125C20.2792 18.2375 20.5167 18.2167 20.75 18.25L24.2 18.95C24.4333 19 24.625 19.1125 24.775 19.2875C24.925 19.4625 25 19.6667 25 19.9V23.95C25 24.25 24.9 24.5 24.7 24.7C24.5 24.9 24.25 25 23.95 25ZM10.025 13L11.675 11.35L11.25 9H9.025C9.10833 9.68333 9.225 10.3583 9.375 11.025C9.525 11.6917 9.74167 12.35 10.025 13ZM18.975 21.95C19.625 22.2333 20.2875 22.4583 20.9625 22.625C21.6375 22.7917 22.3167 22.9 23 22.95V20.75L20.65 20.275L18.975 21.95Z" fill="#1C1B1F"/>
</g>
</svg>
