<svg width="101" height="100" viewBox="0 0 101 100" fill="none" xmlns="http://www.w3.org/2000/svg">
<g clip-path="url(#clip0_282_9164)">
<path d="M67.32 36.7083L50.16 26.8542L33 36.7083V26.8542L50.16 17L67.32 26.8542V36.7083Z" fill="#A435F0"/>
<path d="M33 44.9585H42.0376V66.6147C42.0376 72.2293 46.2704 74.9793 50.16 74.9793C54.164 74.9793 58.2824 72.2293 58.2824 66.6147V44.9585H67.32V67.1876C67.32 72.3439 65.7184 76.3543 62.4008 79.1043C59.0832 81.8543 55.0792 83.1147 50.0456 83.1147C45.012 83.1147 41.008 81.7397 37.8048 79.1043C34.6016 76.2397 33 72.4585 33 67.3022V44.9585Z" fill="black"/>
</g>
<rect x="1" y="0.5" width="99" height="99" rx="49.5" stroke="#191919"/>
<defs>
<clipPath id="clip0_282_9164">
<rect width="34.32" height="66" fill="white" transform="translate(33 17)"/>
</clipPath>
</defs>
</svg>
