<svg width="100" height="100" viewBox="0 0 100 100" fill="none" xmlns="http://www.w3.org/2000/svg">
<path d="M12.8091 50.0243C12.8091 47.1457 15.1622 44.8337 18.1044 44.8337C18.989 44.8275 19.8613 45.0415 20.6426 45.4565C21.4239 45.8714 22.0897 46.4742 22.58 47.2106L20.374 48.4902C20.1187 48.1255 19.779 47.8279 19.3837 47.623C18.9885 47.4181 18.5496 47.3118 18.1044 47.3134C16.5915 47.3134 15.3517 48.5744 15.3517 50.0243C15.3517 51.4742 16.5915 52.7352 18.1044 52.7352C18.5706 52.7382 19.0297 52.6217 19.4381 52.3968C19.8464 52.1719 20.1903 51.8461 20.4369 51.4504L22.6211 52.7532C22.1368 53.5111 21.4685 54.1341 20.6785 54.5641C19.8885 54.9941 19.0025 55.2171 18.1031 55.2123C15.1622 55.2149 12.8091 52.8586 12.8091 50.0243Z" fill="#2668B8"/>
<path d="M23.0718 50.0244C23.0718 47.1664 25.4249 44.855 28.3671 44.855C31.3298 44.855 33.6836 47.1676 33.6836 50.0244C33.6836 52.8612 31.3298 55.215 28.3671 55.215C25.4249 55.215 23.0718 52.8587 23.0718 50.0244ZM31.1409 50.0244C31.1409 48.5957 29.9011 47.3347 28.3671 47.3347C26.8542 47.3347 25.6144 48.5957 25.6144 50.0244C25.6144 51.4743 26.8542 52.7353 28.3671 52.7353C29.9037 52.7353 31.1409 51.4743 31.1409 50.0244Z" fill="#0056D2"/>
<path d="M76.4702 50.1085C76.4702 46.9775 79.0128 44.855 81.3248 44.855C82.9006 44.855 83.8045 45.3381 84.4135 46.2631L84.6557 45.0426H87.019V55.0255H84.6557L84.3505 53.9976C83.6574 54.7544 82.7953 55.2182 81.3248 55.2182C79.0552 55.215 76.4702 53.2184 76.4702 50.1085ZM84.5394 50.0873C84.5366 49.3547 84.2428 48.6532 83.7228 48.1372C83.2028 47.6212 82.4991 47.3328 81.7665 47.3356C81.0339 47.3384 80.3324 47.6322 79.8163 48.1522C79.3003 48.6722 79.0119 49.3759 79.0148 50.1085C79.0148 51.4955 80.2546 52.7353 81.7681 52.7353C83.3002 52.7353 84.5394 51.4955 84.5394 50.0873Z" fill="#0056D2"/>
<path d="M73.5653 46.1993V45.043H70.981V55.0252H73.5653V49.6464C73.5653 48.0282 74.3645 47.188 75.7495 47.188C75.8413 47.188 75.9287 47.1944 76.0142 47.2027L76.4934 44.7931C75.1463 44.8002 74.1698 45.262 73.5653 46.1993Z" fill="#0056D2"/>
<path d="M47.5956 46.2001V45.0438L45.0112 45.0496L45.0331 55.0305L47.6174 55.0247L47.6033 49.6466C47.5995 48.029 48.3967 47.1868 49.783 47.1836C49.8714 47.1839 49.9597 47.1888 50.0476 47.1984L50.5243 44.7862C49.1753 44.7971 48.1975 45.2609 47.5956 46.2001Z" fill="#0056D2"/>
<path d="M34.5781 51.1588V45.0438H37.1619V50.844C37.1619 52.1256 37.8762 52.8823 39.116 52.8823C40.503 52.8823 41.3002 52.0414 41.3002 50.4232V45.0438H43.8852V55.0253H41.3021V53.869C40.6931 54.8146 39.7051 55.2772 38.3394 55.2772C36.028 55.2778 34.5781 53.5967 34.5781 51.1588Z" fill="#0056D2"/>
<path d="M59.7432 50.036C59.749 47.2409 61.7494 44.8492 64.9222 44.855C67.8644 44.8608 69.94 47.2178 69.9329 49.9942C69.9334 50.2687 69.9119 50.5428 69.8687 50.8139L62.262 50.7998C62.5537 51.9978 63.5397 52.8612 65.032 52.8644C65.9352 52.8644 66.9027 52.5317 67.4924 51.7762L69.2552 53.1895C68.3487 54.4698 66.7498 55.2233 65.0487 55.2201C62.0455 55.2098 59.738 52.9569 59.7432 50.036ZM67.3312 48.9991C67.186 47.9906 66.137 47.2107 64.8971 47.2088C63.6991 47.2088 62.7316 47.9193 62.3513 48.9901L67.3312 48.9991Z" fill="#0056D2"/>
<path d="M50.5396 52.8497L52.8368 51.6471C53.2164 52.47 53.9757 52.955 55.0518 52.955C56.043 52.955 56.4226 52.639 56.4226 52.1957C56.4226 50.5897 50.9809 51.563 50.9809 47.8917C50.9809 45.8668 52.7526 44.7914 54.9458 44.7914C56.6121 44.7914 58.0884 45.5296 58.8901 46.9004L56.6134 48.1049C56.2762 47.4298 55.6434 47.0501 54.8417 47.0501C54.0618 47.0501 53.6815 47.3244 53.6815 47.7882C53.6815 49.3493 59.1233 48.358 59.1233 52.0923C59.1233 54.033 57.5417 55.2137 54.9894 55.2137C52.8169 55.2118 51.2982 54.4949 50.5396 52.8497Z" fill="#0056D2"/>
<path d="M12.8091 50.0243C12.8091 47.1457 15.1622 44.8337 18.1044 44.8337C18.989 44.8275 19.8613 45.0416 20.6426 45.4565C21.4239 45.8714 22.0897 46.4742 22.58 47.2106L20.374 48.4903C20.1187 48.1255 19.779 47.828 19.3837 47.623C18.9885 47.4181 18.5496 47.3119 18.1044 47.3134C16.5915 47.3134 15.3517 48.5744 15.3517 50.0243C15.3517 51.4742 16.5915 52.7352 18.1044 52.7352C18.5706 52.7383 19.0297 52.6218 19.4381 52.3968C19.8464 52.1719 20.1903 51.8461 20.4369 51.4505L22.6211 52.7532C22.1368 53.5112 21.4685 54.1341 20.6785 54.5641C19.8885 54.9941 19.0025 55.2171 18.1031 55.2123C15.1622 55.2149 12.8091 52.8586 12.8091 50.0243Z" fill="#0056D2"/>
<rect x="0.5" y="0.5" width="99" height="99" rx="49.5" stroke="#191919"/>
</svg>
