<svg width="101" height="100" viewBox="0 0 101 100" fill="none" xmlns="http://www.w3.org/2000/svg">
<path fill-rule="evenodd" clip-rule="evenodd" d="M43.3945 46.81C42.6868 46.7891 42.1879 46.1985 42.2343 45.4956L42.2867 44.7022C42.3242 44.134 42.7061 43.651 43.2128 43.4278H54.5205C57.9162 43.4278 60.6689 40.6751 60.6689 37.2795C60.6689 33.8838 57.9162 31.1311 54.5205 31.1311H47.129C42.6501 31.0637 37.4972 31.0095 35.1144 30.9885C34.3869 30.9821 33.7993 30.4139 33.767 29.6918L33.7465 29.2355C33.7124 28.4739 34.3073 27.8339 35.0745 27.8227C39.7424 27.7551 53.9959 27.6312 55.2662 27.8C56.7315 27.9948 58.1326 28.5107 59.3645 29.3093C60.5965 30.1078 61.6273 31.1682 62.3797 32.411C63.1322 33.6538 63.5867 35.0467 63.7092 36.4853C63.8318 37.924 63.6192 39.371 63.0873 40.718C62.5555 42.0651 61.7183 43.2771 60.6383 44.2633C59.5584 45.2495 58.2638 45.9843 56.8516 46.4126C55.6461 46.7783 46.8518 46.9125 43.3945 46.81Z" fill="#155EEF"/>
<path fill-rule="evenodd" clip-rule="evenodd" d="M34.0254 57.3648C34.0444 56.7602 34.5181 56.3022 35.1157 56.2439L35.8341 56.1739C36.6929 56.0903 37.4524 56.8526 37.4486 57.7221C37.4441 58.7624 37.4841 60.0186 37.5417 61.0723L37.5417 61.2743C37.5417 61.6194 37.5698 61.958 37.6238 62.2878C37.6346 62.4154 37.6455 62.5334 37.6565 62.6399C37.6843 62.7022 37.7096 62.7589 37.7327 62.8105C38.4167 65.5054 40.8587 67.499 43.7663 67.499C47.2041 67.499 49.991 64.7121 49.991 61.2743L49.991 48.6392C50.1484 48.0918 50.6448 47.6916 51.2384 47.6828L51.776 47.6749C52.5 47.6643 53.1002 48.2425 53.1146 48.9716C53.1831 52.4286 53.2964 60.9652 53.1319 62.2056C52.9372 63.6744 52.4212 65.079 51.6227 66.3139C50.8241 67.5488 49.7638 68.5822 48.521 69.3364C47.2782 70.0907 45.8853 70.5463 44.4467 70.6691C43.008 70.792 41.561 70.5789 40.2139 70.0457C38.8669 69.5126 37.6549 68.6733 36.6687 67.5908C35.6825 66.5083 34.9477 65.2105 34.5193 63.7949C34.166 62.6272 33.9644 59.3125 34.0254 57.3648Z" fill="#155EEF"/>
<rect x="42.2246" y="44.4521" width="3.07417" height="18.445" rx="1.3663" fill="#155EEF"/>
<path d="M51.7411 35.5712C52.4957 35.5712 53.1074 36.1829 53.1074 36.9375L53.1074 41.3471C53.1074 42.1017 52.4957 42.7134 51.7411 42.7134L51.3874 42.7134C50.6526 42.7134 50.0494 42.1323 50.022 41.398L49.9733 40.091C49.9461 39.3614 49.3502 38.7822 48.6201 38.7757L35.3334 38.6574C34.5836 38.6507 33.9792 38.041 33.9792 37.2912L33.9792 36.9375C33.9792 36.1829 34.591 35.5712 35.3455 35.5712L51.7411 35.5712Z" fill="#155EEF"/>
<rect x="0.75" y="0.5" width="99" height="99" rx="49.5" stroke="#191919"/>
</svg>
