<svg width="512" height="496" viewBox="0 0 512 496" fill="none" xmlns="http://www.w3.org/2000/svg">
<rect x="164.5" y="165" width="184" height="182.972" rx="91.486" fill="#9B4819"/>
<path d="M189.477 234.352C189.156 234.469 188.742 234.578 188.234 234.68C187.812 234.766 187.508 234.863 187.32 234.973C187.141 235.074 187 235.277 186.898 235.582C186.805 235.879 186.758 236.355 186.758 237.012V242.016C186.758 243.898 187.137 245.375 187.895 246.445C188.66 247.508 189.957 248.039 191.785 248.039C195.137 248.039 196.812 245.965 196.812 241.816V237.211C196.812 236.516 196.762 236.008 196.66 235.688C196.566 235.367 196.418 235.148 196.215 235.031C196.012 234.906 195.672 234.785 195.195 234.668C194.742 234.551 194.371 234.441 194.082 234.34V233.742H200.398L200.422 234.352C200.305 234.414 200.176 234.465 200.035 234.504C199.902 234.535 199.723 234.57 199.496 234.609C199.199 234.664 198.961 234.719 198.781 234.773C198.602 234.82 198.434 234.906 198.277 235.031C198.129 235.148 198.023 235.312 197.961 235.523C197.836 235.953 197.773 236.453 197.773 237.023C197.773 237.398 197.781 237.992 197.797 238.805C197.812 239.617 197.82 240.227 197.82 240.633C197.82 242.414 197.664 243.918 197.352 245.145C197.047 246.371 196.395 247.371 195.395 248.145C194.402 248.918 192.938 249.305 191 249.305C189.875 249.305 188.828 249.129 187.859 248.777C186.891 248.418 186.086 247.863 185.445 247.113C184.812 246.363 184.438 245.426 184.32 244.301C184.227 243.488 184.18 242.461 184.18 241.219C184.18 240.5 184.191 239.789 184.215 239.086C184.23 238.148 184.238 237.453 184.238 237C184.238 236.422 184.199 235.973 184.121 235.652C184.043 235.34 183.848 235.105 183.535 234.949C183.23 234.793 182.816 234.648 182.293 234.516C182.035 234.445 181.832 234.387 181.684 234.34L181.719 233.742H189.453L189.477 234.352ZM208.695 241.605C208.586 241.613 208.402 241.617 208.145 241.617C207.918 240.828 207.574 240.184 207.113 239.684C206.66 239.184 206.078 238.934 205.367 238.934C204.875 238.934 204.484 239.055 204.195 239.297C203.914 239.539 203.773 239.891 203.773 240.352C203.773 240.672 203.891 240.969 204.125 241.242C204.359 241.516 204.645 241.758 204.98 241.969C205.324 242.172 205.773 242.414 206.328 242.695C206.461 242.758 206.66 242.859 206.926 243C207.801 243.469 208.438 243.949 208.836 244.441C209.242 244.926 209.445 245.52 209.445 246.223C209.445 246.871 209.285 247.422 208.965 247.875C208.645 248.32 208.203 248.66 207.641 248.895C207.078 249.121 206.434 249.234 205.707 249.234C205.066 249.234 204.418 249.156 203.762 249C203.105 248.852 202.566 248.648 202.145 248.391V245.531C202.449 245.492 202.656 245.473 202.766 245.473C202.945 246.34 203.262 247.047 203.715 247.594C204.176 248.141 204.805 248.414 205.602 248.414C206.172 248.414 206.645 248.273 207.02 247.992C207.402 247.703 207.594 247.324 207.594 246.855C207.594 246.559 207.508 246.297 207.336 246.07C207.164 245.844 206.941 245.645 206.668 245.473C206.395 245.301 205.984 245.07 205.438 244.781C204.703 244.391 204.145 244.074 203.762 243.832C203.168 243.465 202.719 243.055 202.414 242.602C202.117 242.148 201.969 241.609 201.969 240.984C201.969 240.383 202.121 239.871 202.426 239.449C202.73 239.02 203.145 238.695 203.668 238.477C204.191 238.258 204.781 238.148 205.438 238.148C206.039 238.148 206.609 238.223 207.148 238.371C207.695 238.52 208.188 238.73 208.625 239.004L208.695 241.605ZM213.641 242.836C213.633 242.914 213.629 243.027 213.629 243.176C213.629 244.16 213.805 244.984 214.156 245.648C214.516 246.305 214.992 246.793 215.586 247.113C216.188 247.426 216.859 247.582 217.602 247.582C218.586 247.582 219.535 247.301 220.449 246.738L220.789 247.066C220.602 247.52 220.285 247.91 219.84 248.238C219.402 248.566 218.902 248.816 218.34 248.988C217.785 249.152 217.246 249.234 216.723 249.234C215.738 249.234 214.852 249.004 214.062 248.543C213.281 248.082 212.668 247.438 212.223 246.609C211.785 245.781 211.566 244.832 211.566 243.762C211.566 242.676 211.805 241.707 212.281 240.855C212.758 239.996 213.391 239.332 214.18 238.863C214.977 238.387 215.828 238.148 216.734 238.148C217.477 238.148 218.145 238.301 218.738 238.605C219.34 238.902 219.828 239.324 220.203 239.871C220.578 240.41 220.816 241.031 220.918 241.734C221.004 242.094 221.047 242.426 221.047 242.73V242.836H213.641ZM217.859 242.086C218.203 242.07 218.492 242.008 218.727 241.898C218.672 240.969 218.453 240.242 218.07 239.719C217.695 239.195 217.16 238.934 216.465 238.934C215.957 238.934 215.504 239.086 215.105 239.391C214.715 239.695 214.398 240.102 214.156 240.609C213.914 241.109 213.758 241.66 213.688 242.262L217.859 242.086ZM226.402 246.293C226.402 246.66 226.441 246.988 226.52 247.277C226.605 247.559 226.805 247.809 227.117 248.027C227.43 248.246 227.898 248.375 228.523 248.414L228.512 249H222.406C222.406 248.938 222.402 248.836 222.395 248.695C222.395 248.555 222.398 248.445 222.406 248.367L222.793 248.262C223.207 248.152 223.504 248.051 223.684 247.957C223.863 247.863 223.996 247.699 224.082 247.465C224.176 247.223 224.223 246.855 224.223 246.363V240.469C224.121 240.297 223.934 240.141 223.66 240C223.387 239.852 223.102 239.73 222.805 239.637C222.516 239.543 222.371 239.5 222.371 239.508L222.395 239.098L225.512 238.266H226.18L226.367 240.422C226.805 239.617 227.258 239.047 227.727 238.711C228.203 238.375 228.746 238.207 229.355 238.207C229.668 238.207 229.949 238.273 230.199 238.406C230.457 238.531 230.656 238.695 230.797 238.898C230.945 239.094 231.02 239.293 231.02 239.496C231.02 239.629 230.98 239.809 230.902 240.035C230.832 240.262 230.719 240.461 230.562 240.633C230.414 240.805 230.23 240.891 230.012 240.891C229.762 240.891 229.566 240.836 229.426 240.727C229.285 240.609 229.141 240.438 228.992 240.211C228.883 240.039 228.777 239.91 228.676 239.824C228.582 239.738 228.461 239.695 228.312 239.695C228.062 239.695 227.836 239.77 227.633 239.918C227.438 240.059 227.266 240.234 227.117 240.445C226.969 240.656 226.789 240.938 226.578 241.289L226.402 241.582V246.293ZM242.867 245.953C242.867 246.547 242.918 246.984 243.02 247.266C243.129 247.547 243.273 247.734 243.453 247.828C243.641 247.922 243.934 248.004 244.332 248.074C244.793 248.152 245.203 248.254 245.562 248.379L245.539 249H237.746V248.391C237.973 248.289 238.176 248.219 238.355 248.18C238.543 248.133 238.777 248.086 239.059 248.039C239.41 247.992 239.668 247.926 239.832 247.84C239.996 247.746 240.121 247.543 240.207 247.23C240.301 246.918 240.348 246.422 240.348 245.742V236.93C240.348 236.289 240.293 235.816 240.184 235.512C240.074 235.207 239.93 235.012 239.75 234.926C239.578 234.84 239.32 234.773 238.977 234.727C238.695 234.68 238.461 234.633 238.273 234.586C238.094 234.539 237.902 234.457 237.699 234.34L237.723 233.742H245.492L245.516 234.352C245.352 234.414 245.117 234.48 244.812 234.551C244.383 234.66 244.039 234.77 243.781 234.879C243.523 234.988 243.305 235.16 243.125 235.395C242.953 235.621 242.867 235.934 242.867 236.332V245.953ZM250.883 246.398C250.883 247.07 251.051 247.559 251.387 247.863C251.73 248.16 252.25 248.344 252.945 248.414C252.945 248.531 252.941 248.648 252.934 248.766C252.926 248.883 252.922 248.961 252.922 249H246.887L246.875 248.625C246.875 248.5 246.879 248.414 246.887 248.367C247.34 248.258 247.68 248.16 247.906 248.074C248.141 247.988 248.332 247.848 248.48 247.652C248.629 247.457 248.703 247.184 248.703 246.832V240.48C248.609 240.301 248.426 240.141 248.152 240C247.879 239.852 247.59 239.73 247.285 239.637C246.988 239.535 246.84 239.488 246.84 239.496L246.875 239.098L250.074 238.301L250.789 238.254L250.918 240.152C251.348 239.574 251.895 239.098 252.559 238.723C253.23 238.34 253.953 238.148 254.727 238.148C255.859 238.148 256.738 238.469 257.363 239.109C257.988 239.75 258.328 240.707 258.383 241.98C258.406 242.48 258.418 242.992 258.418 243.516V246.129C258.418 246.699 258.453 247.113 258.523 247.371C258.594 247.629 258.703 247.809 258.852 247.91C259.008 248.004 259.266 248.105 259.625 248.215L260.117 248.367C260.125 248.414 260.129 248.5 260.129 248.625L260.117 249H254.34C254.34 248.953 254.336 248.875 254.328 248.766C254.32 248.648 254.316 248.531 254.316 248.414C254.371 248.391 254.527 248.344 254.785 248.273C255.199 248.156 255.52 248.031 255.746 247.898C255.98 247.766 256.121 247.551 256.168 247.254C256.207 247.027 256.227 246.727 256.227 246.352V243.738C256.227 242.699 256.188 241.898 256.109 241.336C256.039 240.773 255.844 240.312 255.523 239.953C255.211 239.594 254.703 239.414 254 239.414C253.445 239.414 252.91 239.574 252.395 239.895C251.887 240.215 251.383 240.641 250.883 241.172V246.398ZM264.734 245.32C264.734 246.117 264.762 246.688 264.816 247.031C264.871 247.367 265.004 247.613 265.215 247.77C265.426 247.918 265.781 247.992 266.281 247.992C266.578 247.992 266.875 247.965 267.172 247.91C267.469 247.855 267.719 247.797 267.922 247.734L268.016 248.59C267.617 248.785 267.215 248.941 266.809 249.059C266.402 249.176 265.914 249.234 265.344 249.234C264.586 249.234 264.008 249.109 263.609 248.859C263.211 248.609 262.934 248.207 262.777 247.652C262.621 247.09 262.543 246.301 262.543 245.285V239.344H260.797V238.934C261.328 238.723 261.773 238.477 262.133 238.195C262.5 237.906 262.801 237.609 263.035 237.305C263.27 237 263.551 236.598 263.879 236.098C264.02 235.871 264.129 235.723 264.207 235.652C264.285 235.574 264.363 235.535 264.441 235.535C264.52 235.535 264.582 235.574 264.629 235.652C264.684 235.723 264.711 235.836 264.711 235.992V238.465H267.652V239.344H264.734V245.32ZM271.484 242.836C271.477 242.914 271.473 243.027 271.473 243.176C271.473 244.16 271.648 244.984 272 245.648C272.359 246.305 272.836 246.793 273.43 247.113C274.031 247.426 274.703 247.582 275.445 247.582C276.43 247.582 277.379 247.301 278.293 246.738L278.633 247.066C278.445 247.52 278.129 247.91 277.684 248.238C277.246 248.566 276.746 248.816 276.184 248.988C275.629 249.152 275.09 249.234 274.566 249.234C273.582 249.234 272.695 249.004 271.906 248.543C271.125 248.082 270.512 247.438 270.066 246.609C269.629 245.781 269.41 244.832 269.41 243.762C269.41 242.676 269.648 241.707 270.125 240.855C270.602 239.996 271.234 239.332 272.023 238.863C272.82 238.387 273.672 238.148 274.578 238.148C275.32 238.148 275.988 238.301 276.582 238.605C277.184 238.902 277.672 239.324 278.047 239.871C278.422 240.41 278.66 241.031 278.762 241.734C278.848 242.094 278.891 242.426 278.891 242.73V242.836H271.484ZM275.703 242.086C276.047 242.07 276.336 242.008 276.57 241.898C276.516 240.969 276.297 240.242 275.914 239.719C275.539 239.195 275.004 238.934 274.309 238.934C273.801 238.934 273.348 239.086 272.949 239.391C272.559 239.695 272.242 240.102 272 240.609C271.758 241.109 271.602 241.66 271.531 242.262L275.703 242.086ZM284.246 246.293C284.246 246.66 284.285 246.988 284.363 247.277C284.449 247.559 284.648 247.809 284.961 248.027C285.273 248.246 285.742 248.375 286.367 248.414L286.355 249H280.25C280.25 248.938 280.246 248.836 280.238 248.695C280.238 248.555 280.242 248.445 280.25 248.367L280.637 248.262C281.051 248.152 281.348 248.051 281.527 247.957C281.707 247.863 281.84 247.699 281.926 247.465C282.02 247.223 282.066 246.855 282.066 246.363V240.469C281.965 240.297 281.777 240.141 281.504 240C281.23 239.852 280.945 239.73 280.648 239.637C280.359 239.543 280.215 239.5 280.215 239.508L280.238 239.098L283.355 238.266H284.023L284.211 240.422C284.648 239.617 285.102 239.047 285.57 238.711C286.047 238.375 286.59 238.207 287.199 238.207C287.512 238.207 287.793 238.273 288.043 238.406C288.301 238.531 288.5 238.695 288.641 238.898C288.789 239.094 288.863 239.293 288.863 239.496C288.863 239.629 288.824 239.809 288.746 240.035C288.676 240.262 288.562 240.461 288.406 240.633C288.258 240.805 288.074 240.891 287.855 240.891C287.605 240.891 287.41 240.836 287.27 240.727C287.129 240.609 286.984 240.438 286.836 240.211C286.727 240.039 286.621 239.91 286.52 239.824C286.426 239.738 286.305 239.695 286.156 239.695C285.906 239.695 285.68 239.77 285.477 239.918C285.281 240.059 285.109 240.234 284.961 240.445C284.812 240.656 284.633 240.938 284.422 241.289L284.246 241.582V246.293ZM294.43 245.965C294.43 246.434 294.453 246.812 294.5 247.102C294.555 247.383 294.75 247.664 295.086 247.945C295.43 248.219 295.984 248.375 296.75 248.414C296.75 248.656 296.746 248.852 296.738 249H290.164C290.148 248.703 290.141 248.508 290.141 248.414C290.328 248.359 290.512 248.312 290.691 248.273C291.113 248.164 291.422 248.062 291.617 247.969C291.812 247.875 291.965 247.719 292.074 247.5C292.191 247.273 292.25 246.934 292.25 246.48V239.344H290.422L290.398 238.465H291.207C291.496 238.465 291.703 238.453 291.828 238.43C291.953 238.398 292.047 238.324 292.109 238.207C292.172 238.09 292.203 237.895 292.203 237.621C292.234 236.098 292.613 234.93 293.34 234.117C294.066 233.305 295.094 232.898 296.422 232.898C297.234 232.898 297.91 233.051 298.449 233.355C298.988 233.652 299.258 234.062 299.258 234.586C299.258 234.891 299.16 235.145 298.965 235.348C298.77 235.543 298.5 235.641 298.156 235.641C297.875 235.641 297.66 235.559 297.512 235.395C297.371 235.223 297.227 234.969 297.078 234.633C296.93 234.297 296.785 234.047 296.645 233.883C296.512 233.719 296.309 233.637 296.035 233.637C295.676 233.637 295.379 233.738 295.145 233.941C294.918 234.145 294.742 234.496 294.617 234.996C294.492 235.488 294.43 236.168 294.43 237.035V238.465H297.125L297.148 239.344H294.43V245.965ZM305.34 241.863C305.34 241.277 305.285 240.781 305.176 240.375C305.074 239.969 304.863 239.641 304.543 239.391C304.23 239.141 303.781 239.016 303.195 239.016C302.992 239.016 302.742 239.059 302.445 239.145C302.148 239.23 301.887 239.355 301.66 239.52C301.441 239.676 301.332 239.859 301.332 240.07C301.332 240.156 301.348 240.242 301.379 240.328C301.41 240.406 301.461 240.508 301.531 240.633C301.602 240.75 301.652 240.852 301.684 240.938C301.715 241.023 301.73 241.113 301.73 241.207C301.73 241.52 301.629 241.781 301.426 241.992C301.23 242.195 300.977 242.297 300.664 242.297C300.273 242.297 299.961 242.152 299.727 241.863C299.5 241.574 299.387 241.227 299.387 240.82C299.387 240.211 299.625 239.707 300.102 239.309C300.578 238.91 301.152 238.617 301.824 238.43C302.504 238.242 303.137 238.148 303.723 238.148C304.824 238.148 305.645 238.312 306.184 238.641C306.73 238.961 307.09 239.434 307.262 240.059C307.441 240.676 307.531 241.543 307.531 242.66L307.508 243.246C307.5 243.418 307.488 243.703 307.473 244.102C307.465 244.5 307.461 244.867 307.461 245.203C307.461 246.961 307.645 247.84 308.012 247.84C308.277 247.84 308.621 247.57 309.043 247.031L309.535 247.559C309.191 248.121 308.852 248.543 308.516 248.824C308.18 249.098 307.738 249.234 307.191 249.234C306.676 249.234 306.25 249.074 305.914 248.754C305.586 248.426 305.406 248.004 305.375 247.488C304.875 248.035 304.312 248.465 303.688 248.777C303.07 249.082 302.414 249.234 301.719 249.234C301.234 249.234 300.785 249.148 300.371 248.977C299.965 248.797 299.637 248.531 299.387 248.18C299.145 247.828 299.023 247.406 299.023 246.914C299.023 246.172 299.309 245.555 299.879 245.062C300.449 244.57 301.105 244.195 301.848 243.938C302.59 243.68 303.496 243.422 304.566 243.164C304.66 243.148 304.918 243.086 305.34 242.977V241.863ZM305.34 243.668C305.223 243.707 305.074 243.754 304.895 243.809C304.223 244.027 303.648 244.238 303.172 244.441C302.695 244.637 302.27 244.902 301.895 245.238C301.52 245.574 301.332 245.969 301.332 246.422C301.332 246.883 301.457 247.246 301.707 247.512C301.965 247.777 302.324 247.91 302.785 247.91C303.246 247.91 303.691 247.797 304.121 247.57C304.551 247.336 304.957 247.031 305.34 246.656V243.668ZM320.141 246.797C319.977 247.32 319.684 247.766 319.262 248.133C318.84 248.5 318.344 248.777 317.773 248.965C317.203 249.145 316.609 249.234 315.992 249.234C314.914 249.234 313.98 248.984 313.191 248.484C312.41 247.977 311.816 247.305 311.41 246.469C311.004 245.633 310.801 244.727 310.801 243.75C310.801 242.719 311.047 241.777 311.539 240.926C312.031 240.066 312.723 239.391 313.613 238.898C314.504 238.398 315.516 238.148 316.648 238.148C317.305 238.148 317.906 238.246 318.453 238.441C319 238.629 319.43 238.898 319.742 239.25C320.062 239.602 320.223 240.008 320.223 240.469C320.223 240.82 320.109 241.078 319.883 241.242C319.656 241.398 319.414 241.477 319.156 241.477C318.914 241.477 318.727 241.434 318.594 241.348C318.461 241.254 318.363 241.145 318.301 241.02C318.246 240.887 318.191 240.703 318.137 240.469C318.074 240.172 317.996 239.93 317.902 239.742C317.816 239.555 317.652 239.391 317.41 239.25C317.168 239.109 316.82 239.031 316.367 239.016C315.766 238.992 315.203 239.141 314.68 239.461C314.156 239.773 313.734 240.242 313.414 240.867C313.102 241.492 312.945 242.242 312.945 243.117C312.945 243.93 313.09 244.676 313.379 245.355C313.668 246.035 314.09 246.578 314.645 246.984C315.207 247.391 315.879 247.594 316.66 247.594C317.34 247.594 317.906 247.512 318.359 247.348C318.812 247.184 319.281 246.91 319.766 246.527L320.141 246.797ZM324.359 242.836C324.352 242.914 324.348 243.027 324.348 243.176C324.348 244.16 324.523 244.984 324.875 245.648C325.234 246.305 325.711 246.793 326.305 247.113C326.906 247.426 327.578 247.582 328.32 247.582C329.305 247.582 330.254 247.301 331.168 246.738L331.508 247.066C331.32 247.52 331.004 247.91 330.559 248.238C330.121 248.566 329.621 248.816 329.059 248.988C328.504 249.152 327.965 249.234 327.441 249.234C326.457 249.234 325.57 249.004 324.781 248.543C324 248.082 323.387 247.438 322.941 246.609C322.504 245.781 322.285 244.832 322.285 243.762C322.285 242.676 322.523 241.707 323 240.855C323.477 239.996 324.109 239.332 324.898 238.863C325.695 238.387 326.547 238.148 327.453 238.148C328.195 238.148 328.863 238.301 329.457 238.605C330.059 238.902 330.547 239.324 330.922 239.871C331.297 240.41 331.535 241.031 331.637 241.734C331.723 242.094 331.766 242.426 331.766 242.73V242.836H324.359ZM328.578 242.086C328.922 242.07 329.211 242.008 329.445 241.898C329.391 240.969 329.172 240.242 328.789 239.719C328.414 239.195 327.879 238.934 327.184 238.934C326.676 238.934 326.223 239.086 325.824 239.391C325.434 239.695 325.117 240.102 324.875 240.609C324.633 241.109 324.477 241.66 324.406 242.262L328.578 242.086ZM223.988 267.164C223.988 266.703 223.949 266.23 223.871 265.746C223.824 265.512 223.707 265.32 223.52 265.172C223.332 265.016 223.117 264.895 222.875 264.809C222.641 264.715 222.336 264.617 221.961 264.516C221.68 264.438 221.48 264.379 221.363 264.34L221.387 263.742H228.324C230.277 263.742 231.996 263.996 233.48 264.504C234.965 265.012 236.137 265.828 236.996 266.953C237.855 268.07 238.285 269.516 238.285 271.289C238.285 272.648 237.957 273.918 237.301 275.098C236.652 276.27 235.688 277.215 234.406 277.934C233.133 278.645 231.602 279 229.812 279H221.387L221.363 278.391L221.984 278.227C222.422 278.125 222.773 278.023 223.039 277.922C223.305 277.82 223.527 277.652 223.707 277.418C223.895 277.176 223.988 276.848 223.988 276.434V267.164ZM226.508 275.824C226.508 276.504 226.637 277.039 226.895 277.43C227.16 277.82 227.609 278.031 228.242 278.062C228.68 278.086 229.129 278.098 229.59 278.098C230.871 278.098 231.957 277.801 232.848 277.207C233.738 276.605 234.402 275.828 234.84 274.875C235.277 273.922 235.496 272.918 235.496 271.863C235.496 270.465 235.246 269.227 234.746 268.148C234.246 267.062 233.469 266.207 232.414 265.582C231.367 264.957 230.055 264.645 228.477 264.645H226.508V275.824ZM242.398 272.836C242.391 272.914 242.387 273.027 242.387 273.176C242.387 274.16 242.562 274.984 242.914 275.648C243.273 276.305 243.75 276.793 244.344 277.113C244.945 277.426 245.617 277.582 246.359 277.582C247.344 277.582 248.293 277.301 249.207 276.738L249.547 277.066C249.359 277.52 249.043 277.91 248.598 278.238C248.16 278.566 247.66 278.816 247.098 278.988C246.543 279.152 246.004 279.234 245.48 279.234C244.496 279.234 243.609 279.004 242.82 278.543C242.039 278.082 241.426 277.438 240.98 276.609C240.543 275.781 240.324 274.832 240.324 273.762C240.324 272.676 240.562 271.707 241.039 270.855C241.516 269.996 242.148 269.332 242.938 268.863C243.734 268.387 244.586 268.148 245.492 268.148C246.234 268.148 246.902 268.301 247.496 268.605C248.098 268.902 248.586 269.324 248.961 269.871C249.336 270.41 249.574 271.031 249.676 271.734C249.762 272.094 249.805 272.426 249.805 272.73V272.836H242.398ZM246.617 272.086C246.961 272.07 247.25 272.008 247.484 271.898C247.43 270.969 247.211 270.242 246.828 269.719C246.453 269.195 245.918 268.934 245.223 268.934C244.715 268.934 244.262 269.086 243.863 269.391C243.473 269.695 243.156 270.102 242.914 270.609C242.672 271.109 242.516 271.66 242.445 272.262L246.617 272.086ZM258.758 271.605C258.648 271.613 258.465 271.617 258.207 271.617C257.98 270.828 257.637 270.184 257.176 269.684C256.723 269.184 256.141 268.934 255.43 268.934C254.938 268.934 254.547 269.055 254.258 269.297C253.977 269.539 253.836 269.891 253.836 270.352C253.836 270.672 253.953 270.969 254.188 271.242C254.422 271.516 254.707 271.758 255.043 271.969C255.387 272.172 255.836 272.414 256.391 272.695C256.523 272.758 256.723 272.859 256.988 273C257.863 273.469 258.5 273.949 258.898 274.441C259.305 274.926 259.508 275.52 259.508 276.223C259.508 276.871 259.348 277.422 259.027 277.875C258.707 278.32 258.266 278.66 257.703 278.895C257.141 279.121 256.496 279.234 255.77 279.234C255.129 279.234 254.48 279.156 253.824 279C253.168 278.852 252.629 278.648 252.207 278.391V275.531C252.512 275.492 252.719 275.473 252.828 275.473C253.008 276.34 253.324 277.047 253.777 277.594C254.238 278.141 254.867 278.414 255.664 278.414C256.234 278.414 256.707 278.273 257.082 277.992C257.465 277.703 257.656 277.324 257.656 276.855C257.656 276.559 257.57 276.297 257.398 276.07C257.227 275.844 257.004 275.645 256.73 275.473C256.457 275.301 256.047 275.07 255.5 274.781C254.766 274.391 254.207 274.074 253.824 273.832C253.23 273.465 252.781 273.055 252.477 272.602C252.18 272.148 252.031 271.609 252.031 270.984C252.031 270.383 252.184 269.871 252.488 269.449C252.793 269.02 253.207 268.695 253.73 268.477C254.254 268.258 254.844 268.148 255.5 268.148C256.102 268.148 256.672 268.223 257.211 268.371C257.758 268.52 258.25 268.73 258.688 269.004L258.758 271.605ZM264.102 262.875C264.477 262.875 264.797 263.008 265.062 263.273C265.328 263.539 265.461 263.859 265.461 264.234C265.461 264.617 265.328 264.941 265.062 265.207C264.797 265.465 264.477 265.594 264.102 265.594C263.719 265.594 263.395 265.465 263.129 265.207C262.871 264.941 262.742 264.617 262.742 264.234C262.742 263.859 262.871 263.539 263.129 263.273C263.395 263.008 263.719 262.875 264.102 262.875ZM263.164 270.48C263.062 270.301 262.871 270.141 262.59 270C262.316 269.852 262.031 269.73 261.734 269.637C261.445 269.535 261.301 269.488 261.301 269.496L261.324 269.086L264.617 268.289L265.344 268.242V276.422C265.344 276.695 265.371 276.953 265.426 277.195C265.488 277.438 265.668 277.684 265.965 277.934C266.27 278.184 266.746 278.344 267.395 278.414C267.395 278.672 267.391 278.867 267.383 279H261.266C261.25 278.859 261.242 278.664 261.242 278.414L261.57 278.32C261.914 278.227 262.191 278.133 262.402 278.039C262.613 277.945 262.793 277.809 262.941 277.629C263.09 277.441 263.164 277.191 263.164 276.879V270.48ZM278.68 269.566C278.508 269.512 278.227 269.484 277.836 269.484C277.523 269.484 277.195 269.5 276.852 269.531C276.508 269.555 276.285 269.574 276.184 269.59C276.184 269.574 276.27 269.688 276.441 269.93C276.613 270.164 276.766 270.438 276.898 270.75C277.039 271.055 277.109 271.359 277.109 271.664C277.109 272.453 276.91 273.129 276.512 273.691C276.113 274.254 275.594 274.68 274.953 274.969C274.32 275.25 273.656 275.391 272.961 275.391C272.57 275.391 272.07 275.32 271.461 275.18C271.438 275.195 271.348 275.254 271.191 275.355C270.996 275.48 270.852 275.598 270.758 275.707C270.672 275.809 270.629 275.957 270.629 276.152C270.629 276.348 270.73 276.496 270.934 276.598C271.137 276.691 271.41 276.758 271.754 276.797C272.098 276.828 272.645 276.859 273.395 276.891C273.957 276.914 274.586 276.949 275.281 276.996C276.273 277.066 277.074 277.324 277.684 277.77C278.293 278.215 278.598 278.828 278.598 279.609C278.598 280.312 278.336 280.93 277.812 281.461C277.289 281.992 276.582 282.398 275.691 282.68C274.809 282.969 273.836 283.113 272.773 283.113C271.891 283.113 271.125 283.016 270.477 282.82C269.828 282.633 269.332 282.387 268.988 282.082C268.652 281.785 268.484 281.477 268.484 281.156C268.484 280.812 268.629 280.434 268.918 280.02C269.207 279.605 269.66 279.172 270.277 278.719C269.84 278.539 269.496 278.309 269.246 278.027C269.004 277.746 268.883 277.434 268.883 277.09C268.883 276.676 269.051 276.293 269.387 275.941C269.723 275.59 270.199 275.234 270.816 274.875C270.199 274.523 269.723 274.09 269.387 273.574C269.051 273.059 268.883 272.473 268.883 271.816C268.883 271.113 269.055 270.484 269.398 269.93C269.75 269.367 270.234 268.93 270.852 268.617C271.477 268.305 272.176 268.148 272.949 268.148C273.879 268.148 274.738 268.355 275.527 268.77C275.605 268.738 275.781 268.68 276.055 268.594C276.328 268.5 276.652 268.41 277.027 268.324C277.41 268.238 277.758 268.195 278.07 268.195C278.18 268.195 278.289 268.203 278.398 268.219C278.516 268.227 278.59 268.234 278.621 268.242L278.68 269.566ZM270.969 271.57C270.969 272.461 271.152 273.191 271.52 273.762C271.895 274.332 272.449 274.617 273.184 274.617C273.816 274.617 274.285 274.383 274.59 273.914C274.902 273.445 275.059 272.809 275.059 272.004C275.059 271.371 274.961 270.832 274.766 270.387C274.578 269.934 274.316 269.594 273.98 269.367C273.645 269.133 273.27 269.016 272.855 269.016C272.504 269.016 272.184 269.125 271.895 269.344C271.613 269.555 271.387 269.855 271.215 270.246C271.051 270.629 270.969 271.07 270.969 271.57ZM273.16 278.965C272.566 278.957 271.895 278.91 271.145 278.824C270.387 279.473 270.008 280.066 270.008 280.605C270.008 280.98 270.18 281.281 270.523 281.508C270.875 281.742 271.285 281.906 271.754 282C272.23 282.094 272.672 282.141 273.078 282.141C273.648 282.141 274.238 282.074 274.848 281.941C275.457 281.816 275.969 281.621 276.383 281.355C276.797 281.09 277.004 280.766 277.004 280.383C277.004 279.961 276.77 279.629 276.301 279.387C275.84 279.145 275.125 279.012 274.156 278.988L273.16 278.965ZM283.883 276.398C283.883 277.07 284.051 277.559 284.387 277.863C284.73 278.16 285.25 278.344 285.945 278.414C285.945 278.531 285.941 278.648 285.934 278.766C285.926 278.883 285.922 278.961 285.922 279H279.887L279.875 278.625C279.875 278.5 279.879 278.414 279.887 278.367C280.34 278.258 280.68 278.16 280.906 278.074C281.141 277.988 281.332 277.848 281.48 277.652C281.629 277.457 281.703 277.184 281.703 276.832V270.48C281.609 270.301 281.426 270.141 281.152 270C280.879 269.852 280.59 269.73 280.285 269.637C279.988 269.535 279.84 269.488 279.84 269.496L279.875 269.098L283.074 268.301L283.789 268.254L283.918 270.152C284.348 269.574 284.895 269.098 285.559 268.723C286.23 268.34 286.953 268.148 287.727 268.148C288.859 268.148 289.738 268.469 290.363 269.109C290.988 269.75 291.328 270.707 291.383 271.98C291.406 272.48 291.418 272.992 291.418 273.516V276.129C291.418 276.699 291.453 277.113 291.523 277.371C291.594 277.629 291.703 277.809 291.852 277.91C292.008 278.004 292.266 278.105 292.625 278.215L293.117 278.367C293.125 278.414 293.129 278.5 293.129 278.625L293.117 279H287.34C287.34 278.953 287.336 278.875 287.328 278.766C287.32 278.648 287.316 278.531 287.316 278.414C287.371 278.391 287.527 278.344 287.785 278.273C288.199 278.156 288.52 278.031 288.746 277.898C288.98 277.766 289.121 277.551 289.168 277.254C289.207 277.027 289.227 276.727 289.227 276.352V273.738C289.227 272.699 289.188 271.898 289.109 271.336C289.039 270.773 288.844 270.312 288.523 269.953C288.211 269.594 287.703 269.414 287 269.414C286.445 269.414 285.91 269.574 285.395 269.895C284.887 270.215 284.383 270.641 283.883 271.172V276.398Z" fill="white"/>
<rect x="156.5" y="156.5" width="199" height="199" rx="99.5" stroke="#9B4819"/>
<rect x="4.92969" y="159.22" width="106.72" height="106.124" rx="53.0619" fill="#9B4819"/>
<path d="M37.2528 209.109C37.2528 208.802 37.2268 208.487 37.1747 208.164C37.1434 208.008 37.0653 207.88 36.9403 207.781C36.8153 207.677 36.6721 207.596 36.5106 207.539C36.3544 207.477 36.1512 207.411 35.9012 207.344C35.7137 207.292 35.5809 207.253 35.5028 207.227L35.5184 206.828H40.1434C41.4455 206.828 42.5914 206.997 43.5809 207.336C44.5705 207.674 45.3518 208.219 45.9247 208.969C46.4976 209.714 46.7841 210.677 46.7841 211.859C46.7841 212.766 46.5653 213.612 46.1278 214.398C45.6955 215.18 45.0523 215.81 44.1981 216.289C43.3492 216.763 42.3283 217 41.1356 217H35.5184L35.5028 216.594L35.9169 216.484C36.2085 216.417 36.4429 216.349 36.62 216.281C36.7971 216.214 36.9455 216.102 37.0653 215.945C37.1903 215.784 37.2528 215.565 37.2528 215.289V209.109ZM38.9325 214.883C38.9325 215.336 39.0184 215.693 39.1903 215.953C39.3674 216.214 39.6669 216.354 40.0887 216.375C40.3804 216.391 40.6799 216.398 40.9872 216.398C41.8414 216.398 42.5653 216.201 43.1591 215.805C43.7528 215.404 44.1955 214.885 44.4872 214.25C44.7789 213.615 44.9247 212.945 44.9247 212.242C44.9247 211.31 44.758 210.484 44.4247 209.766C44.0914 209.042 43.5731 208.471 42.87 208.055C42.1721 207.638 41.2971 207.43 40.245 207.43H38.9325V214.883ZM49.5262 212.891C49.521 212.943 49.5184 213.018 49.5184 213.117C49.5184 213.773 49.6356 214.323 49.87 214.766C50.1096 215.203 50.4273 215.529 50.8231 215.742C51.2242 215.951 51.6721 216.055 52.1669 216.055C52.8231 216.055 53.4559 215.867 54.0653 215.492L54.2919 215.711C54.1669 216.013 53.9559 216.273 53.6591 216.492C53.3674 216.711 53.0341 216.878 52.6591 216.992C52.2893 217.102 51.9299 217.156 51.5809 217.156C50.9247 217.156 50.3335 217.003 49.8075 216.695C49.2867 216.388 48.8778 215.958 48.5809 215.406C48.2893 214.854 48.1434 214.221 48.1434 213.508C48.1434 212.784 48.3023 212.138 48.62 211.57C48.9377 210.997 49.3596 210.555 49.8856 210.242C50.4169 209.924 50.9846 209.766 51.5887 209.766C52.0835 209.766 52.5289 209.867 52.9247 210.07C53.3257 210.268 53.6512 210.549 53.9012 210.914C54.1512 211.273 54.3101 211.688 54.3778 212.156C54.4351 212.396 54.4637 212.617 54.4637 212.82V212.891H49.5262ZM52.3387 212.391C52.5679 212.38 52.7606 212.339 52.9169 212.266C52.8804 211.646 52.7346 211.161 52.4794 210.812C52.2294 210.464 51.8726 210.289 51.4091 210.289C51.0705 210.289 50.7684 210.391 50.5028 210.594C50.2424 210.797 50.0315 211.068 49.87 211.406C49.7085 211.74 49.6044 212.107 49.5575 212.508L52.3387 212.391ZM61.8778 211.43C61.8778 211.294 61.87 211.167 61.8544 211.047C61.844 210.922 61.8309 210.823 61.8153 210.75C61.7997 210.677 61.7893 210.63 61.7841 210.609H58.1356V214.977C58.1356 215.237 58.146 215.458 58.1669 215.641C58.1929 215.823 58.2398 215.984 58.3075 216.125C58.344 216.24 58.4325 216.323 58.5731 216.375C58.7137 216.422 58.9091 216.464 59.1591 216.5C59.3934 216.526 59.5679 216.562 59.6825 216.609C59.6825 216.771 59.6799 216.901 59.6747 217H55.4091C55.3986 216.802 55.3934 216.672 55.3934 216.609C55.4664 216.573 55.607 216.534 55.8153 216.492C56.0184 216.456 56.1773 216.414 56.2919 216.367C56.4065 216.315 56.482 216.232 56.5184 216.117C56.6278 215.914 56.6825 215.648 56.6825 215.32V210.609H55.4481V209.977H55.9872C56.1799 209.977 56.3179 209.969 56.4012 209.953C56.4846 209.932 56.5471 209.883 56.5887 209.805C56.6304 209.727 56.6512 209.596 56.6512 209.414C56.6721 208.404 56.9872 207.625 57.5966 207.078C58.2111 206.531 59.0679 206.258 60.1669 206.258C61.1356 206.258 61.9143 206.341 62.5028 206.508C63.0914 206.669 63.3856 206.984 63.3856 207.453C63.3856 207.646 63.3179 207.823 63.1825 207.984C63.0471 208.141 62.8335 208.219 62.5419 208.219C62.344 208.219 62.1877 208.177 62.0731 208.094C61.9585 208.01 61.8283 207.875 61.6825 207.688C61.5419 207.505 61.4065 207.359 61.2762 207.25C61.1512 207.135 60.969 207.036 60.7294 206.953C60.495 206.87 60.1955 206.828 59.8309 206.828C59.4195 206.828 59.094 206.891 58.8544 207.016C58.6148 207.135 58.4351 207.354 58.3153 207.672C58.1955 207.99 58.1356 208.44 58.1356 209.023V209.977H62.8544L63.3309 209.93V215.281C63.3309 215.547 63.357 215.768 63.4091 215.945C63.4351 216.102 63.5132 216.216 63.6434 216.289C63.7736 216.362 63.9455 216.427 64.1591 216.484C64.2268 216.5 64.2919 216.518 64.3544 216.539C64.4169 216.56 64.4637 216.583 64.495 216.609C64.495 216.781 64.4924 216.911 64.4872 217H60.6122C60.6018 216.906 60.5966 216.776 60.5966 216.609C60.6382 216.589 60.6929 216.568 60.7606 216.547C60.8283 216.521 60.8804 216.5 60.9169 216.484C61.1096 216.422 61.271 216.359 61.4012 216.297C61.5315 216.234 61.6434 216.146 61.7372 216.031C61.8309 215.917 61.8778 215.768 61.8778 215.586V211.43ZM67.87 215.266C67.87 215.714 67.982 216.039 68.2059 216.242C68.4351 216.44 68.7815 216.562 69.245 216.609C69.245 216.688 69.2424 216.766 69.2372 216.844C69.232 216.922 69.2294 216.974 69.2294 217H65.2059L65.1981 216.75C65.1981 216.667 65.2007 216.609 65.2059 216.578C65.508 216.505 65.7346 216.44 65.8856 216.383C66.0419 216.326 66.1695 216.232 66.2684 216.102C66.3674 215.971 66.4169 215.789 66.4169 215.555V211.32C66.3544 211.201 66.232 211.094 66.0497 211C65.8674 210.901 65.6747 210.82 65.4716 210.758C65.2736 210.69 65.1747 210.659 65.1747 210.664L65.1981 210.398L67.3309 209.867L67.8075 209.836L67.8934 211.102C68.1799 210.716 68.5445 210.398 68.9872 210.148C69.4351 209.893 69.9169 209.766 70.4325 209.766C71.1877 209.766 71.7736 209.979 72.1903 210.406C72.607 210.833 72.8335 211.471 72.87 212.32C72.8856 212.654 72.8934 212.995 72.8934 213.344V215.086C72.8934 215.466 72.9169 215.742 72.9637 215.914C73.0106 216.086 73.0835 216.206 73.1825 216.273C73.2867 216.336 73.4585 216.404 73.6981 216.477L74.0262 216.578C74.0315 216.609 74.0341 216.667 74.0341 216.75L74.0262 217H70.1747C70.1747 216.969 70.1721 216.917 70.1669 216.844C70.1617 216.766 70.1591 216.688 70.1591 216.609C70.1955 216.594 70.2997 216.562 70.4716 216.516C70.7476 216.438 70.9611 216.354 71.1122 216.266C71.2684 216.177 71.3622 216.034 71.3934 215.836C71.4195 215.685 71.4325 215.484 71.4325 215.234V213.492C71.4325 212.799 71.4065 212.266 71.3544 211.891C71.3075 211.516 71.1773 211.208 70.9637 210.969C70.7554 210.729 70.4169 210.609 69.9481 210.609C69.5783 210.609 69.2216 210.716 68.8778 210.93C68.5393 211.143 68.2033 211.427 67.87 211.781V215.266ZM76.2606 212.891C76.2554 212.943 76.2528 213.018 76.2528 213.117C76.2528 213.773 76.37 214.323 76.6044 214.766C76.844 215.203 77.1617 215.529 77.5575 215.742C77.9585 215.951 78.4065 216.055 78.9012 216.055C79.5575 216.055 80.1903 215.867 80.7997 215.492L81.0262 215.711C80.9012 216.013 80.6903 216.273 80.3934 216.492C80.1018 216.711 79.7684 216.878 79.3934 216.992C79.0236 217.102 78.6643 217.156 78.3153 217.156C77.6591 217.156 77.0679 217.003 76.5419 216.695C76.021 216.388 75.6122 215.958 75.3153 215.406C75.0236 214.854 74.8778 214.221 74.8778 213.508C74.8778 212.784 75.0367 212.138 75.3544 211.57C75.6721 210.997 76.094 210.555 76.62 210.242C77.1512 209.924 77.719 209.766 78.3231 209.766C78.8179 209.766 79.2632 209.867 79.6591 210.07C80.0601 210.268 80.3856 210.549 80.6356 210.914C80.8856 211.273 81.0445 211.688 81.1122 212.156C81.1695 212.396 81.1981 212.617 81.1981 212.82V212.891H76.2606ZM79.0731 212.391C79.3023 212.38 79.495 212.339 79.6512 212.266C79.6148 211.646 79.469 211.161 79.2137 210.812C78.9637 210.464 78.607 210.289 78.1434 210.289C77.8049 210.289 77.5028 210.391 77.2372 210.594C76.9768 210.797 76.7658 211.068 76.6044 211.406C76.4429 211.74 76.3387 212.107 76.2919 212.508L79.0731 212.391Z" fill="white"/>
<rect x="0.29" y="154.29" width="115.42" height="115.42" rx="57.71" stroke="#9B4819" stroke-width="0.58"/>
<rect x="78.9297" y="385.22" width="106.72" height="106.124" rx="53.0619" fill="#9B4819"/>
<path d="M114.339 440.969C114.339 441.365 114.373 441.656 114.44 441.844C114.513 442.031 114.61 442.156 114.729 442.219C114.854 442.281 115.05 442.336 115.315 442.383C115.623 442.435 115.896 442.503 116.136 442.586L116.12 443H110.925V442.594C111.076 442.526 111.211 442.479 111.331 442.453C111.456 442.422 111.612 442.391 111.8 442.359C112.034 442.328 112.206 442.284 112.315 442.227C112.425 442.164 112.508 442.029 112.565 441.82C112.628 441.612 112.659 441.281 112.659 440.828V434.953C112.659 434.526 112.623 434.211 112.55 434.008C112.477 433.805 112.38 433.674 112.261 433.617C112.146 433.56 111.974 433.516 111.745 433.484C111.557 433.453 111.401 433.422 111.276 433.391C111.156 433.359 111.029 433.305 110.893 433.227L110.909 432.828H116.089L116.104 433.234C115.995 433.276 115.839 433.32 115.636 433.367C115.349 433.44 115.12 433.513 114.948 433.586C114.776 433.659 114.63 433.773 114.511 433.93C114.396 434.081 114.339 434.289 114.339 434.555V440.969ZM123.097 433.82C123.029 433.716 122.896 433.612 122.698 433.508C122.505 433.404 122.315 433.315 122.128 433.242C121.946 433.169 121.826 433.125 121.768 433.109L121.784 432.836L123.987 432.305L124.55 432.25V441.445C124.55 441.758 124.682 441.982 124.948 442.117C125.219 442.253 125.508 442.32 125.815 442.32V442.75L123.729 443.094H123.206L123.136 441.883C122.766 442.31 122.378 442.63 121.972 442.844C121.565 443.052 121.13 443.156 120.667 443.156C120.078 443.156 119.539 443.016 119.05 442.734C118.565 442.448 118.182 442.049 117.901 441.539C117.62 441.023 117.479 440.432 117.479 439.766C117.479 439 117.636 438.315 117.948 437.711C118.266 437.107 118.701 436.635 119.253 436.297C119.805 435.958 120.422 435.789 121.104 435.789C121.422 435.789 121.732 435.839 122.034 435.938C122.336 436.031 122.69 436.174 123.097 436.367V433.82ZM123.097 439.016C123.097 438.51 123.052 438.104 122.964 437.797C122.875 437.484 122.696 437.208 122.425 436.969C122.216 436.786 121.992 436.646 121.753 436.547C121.513 436.443 121.271 436.391 121.026 436.391C120.615 436.391 120.25 436.523 119.932 436.789C119.615 437.055 119.367 437.409 119.19 437.852C119.018 438.289 118.932 438.763 118.932 439.273C118.932 439.768 119.018 440.242 119.19 440.695C119.367 441.143 119.63 441.51 119.979 441.797C120.328 442.083 120.75 442.227 121.245 442.227C121.641 442.227 121.992 442.141 122.3 441.969C122.612 441.792 122.878 441.557 123.097 441.266V439.016ZM128.073 438.891C128.068 438.943 128.065 439.018 128.065 439.117C128.065 439.773 128.182 440.323 128.417 440.766C128.656 441.203 128.974 441.529 129.37 441.742C129.771 441.951 130.219 442.055 130.714 442.055C131.37 442.055 132.003 441.867 132.612 441.492L132.839 441.711C132.714 442.013 132.503 442.273 132.206 442.492C131.914 442.711 131.581 442.878 131.206 442.992C130.836 443.102 130.477 443.156 130.128 443.156C129.472 443.156 128.88 443.003 128.354 442.695C127.834 442.388 127.425 441.958 127.128 441.406C126.836 440.854 126.69 440.221 126.69 439.508C126.69 438.784 126.849 438.138 127.167 437.57C127.485 436.997 127.906 436.555 128.432 436.242C128.964 435.924 129.531 435.766 130.136 435.766C130.63 435.766 131.076 435.867 131.472 436.07C131.873 436.268 132.198 436.549 132.448 436.914C132.698 437.273 132.857 437.688 132.925 438.156C132.982 438.396 133.011 438.617 133.011 438.82V438.891H128.073ZM130.886 438.391C131.115 438.38 131.307 438.339 131.464 438.266C131.427 437.646 131.281 437.161 131.026 436.812C130.776 436.464 130.419 436.289 129.956 436.289C129.617 436.289 129.315 436.391 129.05 436.594C128.789 436.797 128.578 437.068 128.417 437.406C128.255 437.74 128.151 438.107 128.104 438.508L130.886 438.391ZM138.503 438.242C138.503 437.852 138.466 437.521 138.393 437.25C138.326 436.979 138.185 436.76 137.972 436.594C137.763 436.427 137.464 436.344 137.073 436.344C136.938 436.344 136.771 436.372 136.573 436.43C136.375 436.487 136.201 436.57 136.05 436.68C135.904 436.784 135.831 436.906 135.831 437.047C135.831 437.104 135.841 437.161 135.862 437.219C135.883 437.271 135.917 437.339 135.964 437.422C136.011 437.5 136.044 437.568 136.065 437.625C136.086 437.682 136.097 437.742 136.097 437.805C136.097 438.013 136.029 438.188 135.893 438.328C135.763 438.464 135.594 438.531 135.386 438.531C135.125 438.531 134.917 438.435 134.761 438.242C134.61 438.049 134.534 437.818 134.534 437.547C134.534 437.141 134.693 436.805 135.011 436.539C135.328 436.273 135.711 436.078 136.159 435.953C136.612 435.828 137.034 435.766 137.425 435.766C138.159 435.766 138.706 435.875 139.065 436.094C139.43 436.307 139.669 436.622 139.784 437.039C139.904 437.451 139.964 438.029 139.964 438.773L139.948 439.164C139.943 439.279 139.935 439.469 139.925 439.734C139.919 440 139.917 440.245 139.917 440.469C139.917 441.641 140.039 442.227 140.284 442.227C140.461 442.227 140.69 442.047 140.972 441.688L141.3 442.039C141.071 442.414 140.844 442.695 140.62 442.883C140.396 443.065 140.102 443.156 139.737 443.156C139.393 443.156 139.11 443.049 138.886 442.836C138.667 442.617 138.547 442.336 138.526 441.992C138.193 442.357 137.818 442.643 137.401 442.852C136.99 443.055 136.552 443.156 136.089 443.156C135.766 443.156 135.466 443.099 135.19 442.984C134.919 442.865 134.701 442.688 134.534 442.453C134.373 442.219 134.292 441.938 134.292 441.609C134.292 441.115 134.482 440.703 134.862 440.375C135.242 440.047 135.68 439.797 136.175 439.625C136.669 439.453 137.274 439.281 137.987 439.109C138.05 439.099 138.222 439.057 138.503 438.984V438.242ZM138.503 439.445C138.425 439.471 138.326 439.503 138.206 439.539C137.758 439.685 137.375 439.826 137.057 439.961C136.74 440.091 136.456 440.268 136.206 440.492C135.956 440.716 135.831 440.979 135.831 441.281C135.831 441.589 135.914 441.831 136.081 442.008C136.253 442.185 136.492 442.273 136.8 442.273C137.107 442.273 137.404 442.198 137.69 442.047C137.977 441.891 138.248 441.688 138.503 441.438V439.445ZM144.37 440.547C144.37 441.078 144.388 441.458 144.425 441.688C144.461 441.911 144.55 442.076 144.69 442.18C144.831 442.279 145.068 442.328 145.401 442.328C145.599 442.328 145.797 442.31 145.995 442.273C146.193 442.237 146.36 442.198 146.495 442.156L146.557 442.727C146.292 442.857 146.024 442.961 145.753 443.039C145.482 443.117 145.156 443.156 144.776 443.156C144.271 443.156 143.886 443.073 143.62 442.906C143.354 442.74 143.169 442.471 143.065 442.102C142.961 441.727 142.909 441.201 142.909 440.523V436.562H141.745V436.289C142.099 436.148 142.396 435.984 142.636 435.797C142.88 435.604 143.081 435.406 143.237 435.203C143.393 435 143.581 434.732 143.8 434.398C143.893 434.247 143.966 434.148 144.018 434.102C144.071 434.049 144.123 434.023 144.175 434.023C144.227 434.023 144.268 434.049 144.3 434.102C144.336 434.148 144.354 434.224 144.354 434.328V435.977H146.315V436.562H144.37V440.547ZM148.87 438.891C148.865 438.943 148.862 439.018 148.862 439.117C148.862 439.773 148.979 440.323 149.214 440.766C149.453 441.203 149.771 441.529 150.167 441.742C150.568 441.951 151.016 442.055 151.511 442.055C152.167 442.055 152.8 441.867 153.409 441.492L153.636 441.711C153.511 442.013 153.3 442.273 153.003 442.492C152.711 442.711 152.378 442.878 152.003 442.992C151.633 443.102 151.274 443.156 150.925 443.156C150.268 443.156 149.677 443.003 149.151 442.695C148.63 442.388 148.222 441.958 147.925 441.406C147.633 440.854 147.487 440.221 147.487 439.508C147.487 438.784 147.646 438.138 147.964 437.57C148.281 436.997 148.703 436.555 149.229 436.242C149.761 435.924 150.328 435.766 150.932 435.766C151.427 435.766 151.873 435.867 152.268 436.07C152.669 436.268 152.995 436.549 153.245 436.914C153.495 437.273 153.654 437.688 153.722 438.156C153.779 438.396 153.807 438.617 153.807 438.82V438.891H148.87ZM151.682 438.391C151.912 438.38 152.104 438.339 152.261 438.266C152.224 437.646 152.078 437.161 151.823 436.812C151.573 436.464 151.216 436.289 150.753 436.289C150.414 436.289 150.112 436.391 149.847 436.594C149.586 436.797 149.375 437.068 149.214 437.406C149.052 437.74 148.948 438.107 148.901 438.508L151.682 438.391Z" fill="white"/>
<rect x="74.29" y="380.29" width="115.42" height="115.42" rx="57.71" stroke="#9B4819" stroke-width="0.58"/>
<rect x="348.93" y="385.22" width="106.72" height="106.124" rx="53.0619" fill="#9B4819"/>
<path d="M370.104 434.945C370.104 434.555 370.071 434.266 370.003 434.078C369.94 433.891 369.849 433.76 369.729 433.688C369.615 433.615 369.427 433.542 369.167 433.469C368.906 433.396 368.669 433.315 368.456 433.227L368.472 432.828H372.347C373.326 432.828 374.182 432.883 374.917 432.992C375.651 433.096 376.292 433.357 376.839 433.773C377.386 434.185 377.659 434.815 377.659 435.664C377.659 436.341 377.498 436.909 377.175 437.367C376.852 437.826 376.417 438.167 375.87 438.391C375.328 438.609 374.724 438.719 374.057 438.719C373.938 438.719 373.745 438.698 373.479 438.656C373.214 438.615 372.972 438.555 372.753 438.477C372.539 438.398 372.432 438.307 372.432 438.203C372.432 438.109 372.547 438.062 372.776 438.062H372.893C373.524 438.062 374.047 438.008 374.464 437.898C374.886 437.784 375.219 437.56 375.464 437.227C375.714 436.888 375.839 436.404 375.839 435.773C375.839 435.195 375.68 434.729 375.362 434.375C375.044 434.016 374.638 433.76 374.143 433.609C373.649 433.453 373.117 433.375 372.55 433.375C372.321 433.375 372.068 433.388 371.792 433.414V440.852C371.792 441.294 371.821 441.615 371.878 441.812C371.935 442.01 372.018 442.141 372.128 442.203C372.237 442.266 372.417 442.318 372.667 442.359C373.005 442.417 373.305 442.495 373.565 442.594L373.55 443H368.472L368.448 442.594L368.698 442.523C369.005 442.44 369.25 442.359 369.432 442.281C369.62 442.198 369.779 442.076 369.909 441.914C370.039 441.753 370.104 441.536 370.104 441.266V434.945ZM381.12 441.195C381.12 441.44 381.146 441.659 381.198 441.852C381.255 442.039 381.388 442.206 381.597 442.352C381.805 442.497 382.117 442.583 382.534 442.609L382.526 443H378.456C378.456 442.958 378.453 442.891 378.448 442.797C378.448 442.703 378.451 442.63 378.456 442.578L378.714 442.508C378.99 442.435 379.188 442.367 379.307 442.305C379.427 442.242 379.516 442.133 379.573 441.977C379.636 441.815 379.667 441.57 379.667 441.242V437.312C379.599 437.198 379.474 437.094 379.292 437C379.11 436.901 378.919 436.82 378.722 436.758C378.529 436.695 378.432 436.667 378.432 436.672L378.448 436.398L380.526 435.844H380.972L381.097 437.281C381.388 436.745 381.69 436.365 382.003 436.141C382.321 435.917 382.682 435.805 383.089 435.805C383.297 435.805 383.485 435.849 383.651 435.938C383.823 436.021 383.956 436.13 384.05 436.266C384.149 436.396 384.198 436.529 384.198 436.664C384.198 436.753 384.172 436.872 384.12 437.023C384.073 437.174 383.998 437.307 383.893 437.422C383.794 437.536 383.672 437.594 383.526 437.594C383.36 437.594 383.229 437.557 383.136 437.484C383.042 437.406 382.946 437.292 382.847 437.141C382.774 437.026 382.703 436.94 382.636 436.883C382.573 436.826 382.492 436.797 382.393 436.797C382.227 436.797 382.076 436.846 381.94 436.945C381.81 437.039 381.696 437.156 381.597 437.297C381.498 437.438 381.378 437.625 381.237 437.859L381.12 438.055V441.195ZM388.518 435.766C389.211 435.766 389.841 435.917 390.409 436.219C390.982 436.516 391.435 436.943 391.768 437.5C392.102 438.052 392.268 438.695 392.268 439.43C392.268 440.164 392.102 440.815 391.768 441.383C391.435 441.945 390.99 442.383 390.432 442.695C389.875 443.003 389.266 443.156 388.604 443.156C387.948 443.156 387.334 442.997 386.761 442.68C386.188 442.362 385.729 441.922 385.386 441.359C385.042 440.792 384.87 440.151 384.87 439.438C384.87 438.724 385.037 438.089 385.37 437.531C385.703 436.969 386.149 436.534 386.706 436.227C387.268 435.919 387.873 435.766 388.518 435.766ZM388.706 442.547C389.367 442.547 389.87 442.31 390.214 441.836C390.557 441.362 390.729 440.74 390.729 439.969C390.729 439.302 390.636 438.69 390.448 438.133C390.266 437.57 390.003 437.122 389.659 436.789C389.315 436.456 388.919 436.289 388.472 436.289C388.076 436.289 387.724 436.385 387.417 436.578C387.115 436.771 386.875 437.068 386.698 437.469C386.521 437.87 386.432 438.372 386.432 438.977C386.432 439.57 386.526 440.143 386.714 440.695C386.901 441.242 387.167 441.688 387.511 442.031C387.854 442.375 388.253 442.547 388.706 442.547ZM395.784 440.547C395.784 441.078 395.802 441.458 395.839 441.688C395.875 441.911 395.964 442.076 396.104 442.18C396.245 442.279 396.482 442.328 396.815 442.328C397.013 442.328 397.211 442.31 397.409 442.273C397.607 442.237 397.774 442.198 397.909 442.156L397.972 442.727C397.706 442.857 397.438 442.961 397.167 443.039C396.896 443.117 396.571 443.156 396.19 443.156C395.685 443.156 395.3 443.073 395.034 442.906C394.768 442.74 394.584 442.471 394.479 442.102C394.375 441.727 394.323 441.201 394.323 440.523V436.562H393.159V436.289C393.513 436.148 393.81 435.984 394.05 435.797C394.294 435.604 394.495 435.406 394.651 435.203C394.807 435 394.995 434.732 395.214 434.398C395.307 434.247 395.38 434.148 395.432 434.102C395.485 434.049 395.537 434.023 395.589 434.023C395.641 434.023 395.682 434.049 395.714 434.102C395.75 434.148 395.768 434.224 395.768 434.328V435.977H397.729V436.562H395.784V440.547ZM402.55 435.766C403.242 435.766 403.873 435.917 404.44 436.219C405.013 436.516 405.466 436.943 405.8 437.5C406.133 438.052 406.3 438.695 406.3 439.43C406.3 440.164 406.133 440.815 405.8 441.383C405.466 441.945 405.021 442.383 404.464 442.695C403.906 443.003 403.297 443.156 402.636 443.156C401.979 443.156 401.365 442.997 400.792 442.68C400.219 442.362 399.761 441.922 399.417 441.359C399.073 440.792 398.901 440.151 398.901 439.438C398.901 438.724 399.068 438.089 399.401 437.531C399.735 436.969 400.18 436.534 400.737 436.227C401.3 435.919 401.904 435.766 402.55 435.766ZM402.737 442.547C403.399 442.547 403.901 442.31 404.245 441.836C404.589 441.362 404.761 440.74 404.761 439.969C404.761 439.302 404.667 438.69 404.479 438.133C404.297 437.57 404.034 437.122 403.69 436.789C403.347 436.456 402.951 436.289 402.503 436.289C402.107 436.289 401.755 436.385 401.448 436.578C401.146 436.771 400.906 437.068 400.729 437.469C400.552 437.87 400.464 438.372 400.464 438.977C400.464 439.57 400.557 440.143 400.745 440.695C400.932 441.242 401.198 441.688 401.542 442.031C401.886 442.375 402.284 442.547 402.737 442.547ZM409.815 440.547C409.815 441.078 409.834 441.458 409.87 441.688C409.906 441.911 409.995 442.076 410.136 442.18C410.276 442.279 410.513 442.328 410.847 442.328C411.044 442.328 411.242 442.31 411.44 442.273C411.638 442.237 411.805 442.198 411.94 442.156L412.003 442.727C411.737 442.857 411.469 442.961 411.198 443.039C410.927 443.117 410.602 443.156 410.222 443.156C409.716 443.156 409.331 443.073 409.065 442.906C408.8 442.74 408.615 442.471 408.511 442.102C408.406 441.727 408.354 441.201 408.354 440.523V436.562H407.19V436.289C407.544 436.148 407.841 435.984 408.081 435.797C408.326 435.604 408.526 435.406 408.682 435.203C408.839 435 409.026 434.732 409.245 434.398C409.339 434.247 409.412 434.148 409.464 434.102C409.516 434.049 409.568 434.023 409.62 434.023C409.672 434.023 409.714 434.049 409.745 434.102C409.781 434.148 409.8 434.224 409.8 434.328V435.977H411.761V436.562H409.815V440.547ZM413.526 437.438C413.401 437.156 413.281 436.945 413.167 436.805C413.052 436.664 412.946 436.573 412.847 436.531C412.753 436.484 412.641 436.451 412.511 436.43C412.432 436.419 412.36 436.404 412.292 436.383V435.977H415.956C415.966 436.023 415.979 436.109 415.995 436.234C416.016 436.354 416.016 436.417 415.995 436.422C415.651 436.484 415.399 436.557 415.237 436.641C415.076 436.719 414.995 436.841 414.995 437.008C414.995 437.117 415.029 437.279 415.097 437.492L416.643 441.344L417.979 437.727C418.057 437.523 418.097 437.346 418.097 437.195C418.097 436.971 418.016 436.802 417.854 436.688C417.693 436.568 417.435 436.477 417.081 436.414C417.076 436.383 417.073 436.323 417.073 436.234C417.073 436.172 417.073 436.117 417.073 436.07C417.078 436.023 417.081 435.992 417.081 435.977H419.948L419.956 436.375C419.873 436.443 419.758 436.503 419.612 436.555C419.477 436.612 419.362 436.669 419.268 436.727C419.18 436.779 419.091 436.865 419.003 436.984C418.919 437.104 418.849 437.268 418.792 437.477L416.018 444.305C415.789 444.878 415.516 445.318 415.198 445.625C414.886 445.932 414.487 446.086 414.003 446.086C413.654 446.086 413.365 446.003 413.136 445.836C412.912 445.674 412.8 445.456 412.8 445.18C412.8 444.977 412.87 444.805 413.011 444.664C413.156 444.523 413.331 444.453 413.534 444.453C413.716 444.453 413.852 444.484 413.94 444.547C414.034 444.609 414.125 444.703 414.214 444.828C414.281 444.922 414.344 444.992 414.401 445.039C414.464 445.091 414.547 445.117 414.651 445.117C414.813 445.117 414.956 445.044 415.081 444.898C415.206 444.753 415.323 444.555 415.432 444.305C415.547 444.06 415.706 443.674 415.909 443.148L415.964 443L413.526 437.438ZM423.167 444.125C423.167 444.604 423.279 444.948 423.503 445.156C423.732 445.37 424.099 445.505 424.604 445.562C424.604 445.641 424.602 445.716 424.597 445.789C424.591 445.867 424.589 445.922 424.589 445.953H420.472C420.472 445.922 420.469 445.867 420.464 445.789C420.459 445.716 420.456 445.641 420.456 445.562C420.867 445.505 421.18 445.365 421.393 445.141C421.607 444.922 421.714 444.607 421.714 444.195V437.422C421.625 437.266 421.456 437.122 421.206 436.992C420.961 436.862 420.719 436.753 420.479 436.664L420.417 436.641V436.375L422.526 435.828H423.057L423.12 437.109C423.505 436.682 423.893 436.352 424.284 436.117C424.675 435.883 425.12 435.766 425.62 435.766C426.209 435.766 426.732 435.909 427.19 436.195C427.649 436.477 428.005 436.883 428.261 437.414C428.516 437.94 428.643 438.56 428.643 439.273C428.643 440.034 428.487 440.708 428.175 441.297C427.867 441.88 427.443 442.336 426.901 442.664C426.36 442.987 425.753 443.148 425.081 443.148C424.732 443.148 424.396 443.086 424.073 442.961C423.75 442.836 423.448 442.654 423.167 442.414V444.125ZM423.167 440.289C423.167 440.716 423.245 441.096 423.401 441.43C423.563 441.758 423.797 442.018 424.104 442.211C424.412 442.398 424.776 442.492 425.198 442.492C425.849 442.492 426.344 442.24 426.682 441.734C427.021 441.229 427.19 440.536 427.19 439.656C427.19 439.026 427.091 438.495 426.893 438.062C426.696 437.63 426.435 437.31 426.112 437.102C425.789 436.888 425.435 436.781 425.05 436.781C424.435 436.781 423.807 437.091 423.167 437.711V440.289ZM431.315 438.891C431.31 438.943 431.307 439.018 431.307 439.117C431.307 439.773 431.425 440.323 431.659 440.766C431.899 441.203 432.216 441.529 432.612 441.742C433.013 441.951 433.461 442.055 433.956 442.055C434.612 442.055 435.245 441.867 435.854 441.492L436.081 441.711C435.956 442.013 435.745 442.273 435.448 442.492C435.156 442.711 434.823 442.878 434.448 442.992C434.078 443.102 433.719 443.156 433.37 443.156C432.714 443.156 432.123 443.003 431.597 442.695C431.076 442.388 430.667 441.958 430.37 441.406C430.078 440.854 429.932 440.221 429.932 439.508C429.932 438.784 430.091 438.138 430.409 437.57C430.727 436.997 431.149 436.555 431.675 436.242C432.206 435.924 432.774 435.766 433.378 435.766C433.873 435.766 434.318 435.867 434.714 436.07C435.115 436.268 435.44 436.549 435.69 436.914C435.94 437.273 436.099 437.688 436.167 438.156C436.224 438.396 436.253 438.617 436.253 438.82V438.891H431.315ZM434.128 438.391C434.357 438.38 434.55 438.339 434.706 438.266C434.669 437.646 434.524 437.161 434.268 436.812C434.018 436.464 433.662 436.289 433.198 436.289C432.86 436.289 432.557 436.391 432.292 436.594C432.031 436.797 431.821 437.068 431.659 437.406C431.498 437.74 431.393 438.107 431.347 438.508L434.128 438.391Z" fill="white"/>
<rect x="344.29" y="380.29" width="115.42" height="115.42" rx="57.71" stroke="#9B4819" stroke-width="0.58"/>
<rect x="202.93" y="5.21997" width="106.72" height="106.124" rx="53.0619" fill="#9B4819"/>
<path d="M228.018 63.0703C227.935 63.0859 227.852 63.0938 227.768 63.0938C227.669 63.0938 227.521 63.0781 227.323 63.0469C227.125 63.0156 226.974 63 226.87 63H218.854L218.839 62.6172C219 62.5286 219.149 62.4661 219.284 62.4297C219.425 62.388 219.578 62.3542 219.745 62.3281C219.953 62.2917 220.104 62.2448 220.198 62.1875C220.297 62.1302 220.373 62.0078 220.425 61.8203C220.477 61.6276 220.503 61.3255 220.503 60.9141V55C220.503 54.5938 220.469 54.2943 220.401 54.1016C220.339 53.9089 220.245 53.776 220.12 53.7031C219.995 53.625 219.787 53.5417 219.495 53.4531C219.448 53.4375 219.357 53.4089 219.222 53.3672C219.091 53.3255 218.964 53.2786 218.839 53.2266L218.854 52.8281H226.823C226.896 52.8281 226.974 52.8229 227.057 52.8125C227.146 52.8021 227.209 52.7943 227.245 52.7891C227.401 52.763 227.542 52.75 227.667 52.75C227.776 52.75 227.873 52.7604 227.956 52.7812V55.2109L227.55 55.2266C227.461 55.138 227.388 55.0391 227.331 54.9297C227.274 54.8203 227.209 54.6771 227.136 54.5C227.031 54.2396 226.927 54.0365 226.823 53.8906C226.724 53.7448 226.576 53.638 226.378 53.5703C226.086 53.4766 225.724 53.4167 225.292 53.3906C224.86 53.3646 224.36 53.3516 223.792 53.3516C223.125 53.3516 222.599 53.375 222.214 53.4219C222.193 53.6562 222.182 53.9245 222.182 54.2266V57.3984H224.432C224.844 57.3984 225.151 57.3672 225.354 57.3047C225.557 57.2422 225.714 57.1406 225.823 57C225.938 56.8594 226.094 56.6094 226.292 56.25L226.409 56.0391H226.854V59.3906L226.409 59.4141C226.242 58.9661 226.029 58.6172 225.768 58.3672C225.513 58.1172 225.169 57.9922 224.737 57.9922H222.182V60.625C222.182 61.1719 222.245 61.5755 222.37 61.8359C222.5 62.0964 222.685 62.2656 222.925 62.3438C223.169 62.4167 223.516 62.4531 223.964 62.4531H224.729C225.386 62.4531 225.951 62.3802 226.425 62.2344C226.904 62.0833 227.258 61.7786 227.487 61.3203L227.597 61.0781C227.69 60.875 227.766 60.724 227.823 60.625C227.88 60.5208 227.953 60.4219 228.042 60.3281H228.534L228.018 63.0703ZM232.19 61.1641C232.19 61.5599 232.253 61.8568 232.378 62.0547C232.503 62.2474 232.646 62.3724 232.807 62.4297C232.969 62.487 233.222 62.5469 233.565 62.6094C233.565 62.6875 233.563 62.7656 233.557 62.8438C233.552 62.9219 233.55 62.974 233.55 63H229.518V62.5859C229.529 62.5807 229.602 62.5599 229.737 62.5234C229.998 62.4609 230.211 62.388 230.378 62.3047C230.544 62.2161 230.646 62.0833 230.682 61.9062C230.709 61.8177 230.724 61.7292 230.729 61.6406C230.735 61.5469 230.737 61.4219 230.737 61.2656V57.3281C230.675 57.2031 230.55 57.0938 230.362 57C230.18 56.901 229.99 56.8203 229.792 56.7578C229.594 56.6901 229.495 56.6589 229.495 56.6641L229.518 56.3984L231.667 55.8672L232.128 55.8359L232.214 57.1094C232.521 56.7083 232.883 56.3854 233.3 56.1406C233.716 55.8906 234.182 55.7656 234.698 55.7656C235.209 55.7656 235.63 55.8698 235.964 56.0781C236.297 56.2865 236.552 56.6016 236.729 57.0234C236.979 56.7474 237.216 56.5234 237.44 56.3516C237.664 56.1745 237.914 56.0365 238.19 55.9375C238.466 55.8333 238.779 55.7812 239.128 55.7812C239.81 55.7812 240.357 55.9427 240.768 56.2656C241.185 56.5833 241.422 57.0677 241.479 57.7188C241.521 58.2083 241.542 58.7005 241.542 59.1953V61.2422C241.542 61.5026 241.56 61.724 241.597 61.9062C241.623 62.0573 241.688 62.1771 241.792 62.2656C241.901 62.3542 242.008 62.4167 242.112 62.4531C242.216 62.4844 242.399 62.5365 242.659 62.6094C242.659 62.6875 242.656 62.7656 242.651 62.8438C242.646 62.9167 242.643 62.9688 242.643 63H238.886C238.886 62.9688 238.883 62.9167 238.878 62.8438C238.873 62.7656 238.87 62.6875 238.87 62.6094C238.896 62.6042 238.925 62.5964 238.956 62.5859C238.992 62.5755 239.029 62.5651 239.065 62.5547C239.336 62.4818 239.552 62.4036 239.714 62.3203C239.875 62.2318 239.977 62.099 240.018 61.9219C240.06 61.7135 240.081 61.487 240.081 61.2422V58.1406C240.081 57.651 239.956 57.2734 239.706 57.0078C239.456 56.737 239.099 56.6016 238.636 56.6016C238.313 56.6016 237.992 56.6979 237.675 56.8906C237.357 57.0781 237.076 57.3073 236.831 57.5781C236.862 57.9375 236.878 58.5156 236.878 59.3125V61.2031C236.878 61.5 236.893 61.7292 236.925 61.8906C236.956 62.0781 237.052 62.2161 237.214 62.3047C237.38 62.3932 237.599 62.474 237.87 62.5469C238.016 62.5938 238.086 62.6146 238.081 62.6094C238.081 62.6875 238.078 62.7656 238.073 62.8438C238.068 62.9219 238.065 62.974 238.065 63H234.159C234.159 62.9688 234.156 62.9167 234.151 62.8438C234.146 62.7656 234.143 62.6875 234.143 62.6094C234.164 62.6042 234.289 62.5807 234.518 62.5391C234.753 62.4922 234.961 62.3542 235.143 62.125C235.326 61.8906 235.417 61.5859 235.417 61.2109V58.4922C235.417 57.8828 235.321 57.4167 235.128 57.0938C234.935 56.7708 234.599 56.6094 234.12 56.6094C233.745 56.6094 233.404 56.7083 233.097 56.9062C232.794 57.099 232.492 57.3646 232.19 57.7031V61.1641ZM245.932 64.125C245.932 64.6042 246.044 64.9479 246.268 65.1562C246.498 65.3698 246.865 65.5052 247.37 65.5625C247.37 65.6406 247.367 65.7161 247.362 65.7891C247.357 65.8672 247.354 65.9219 247.354 65.9531H243.237C243.237 65.9219 243.235 65.8672 243.229 65.7891C243.224 65.7161 243.222 65.6406 243.222 65.5625C243.633 65.5052 243.946 65.3646 244.159 65.1406C244.373 64.9219 244.479 64.6068 244.479 64.1953V57.4219C244.391 57.2656 244.222 57.1224 243.972 56.9922C243.727 56.862 243.485 56.7526 243.245 56.6641L243.182 56.6406V56.375L245.292 55.8281H245.823L245.886 57.1094C246.271 56.6823 246.659 56.3516 247.05 56.1172C247.44 55.8828 247.886 55.7656 248.386 55.7656C248.974 55.7656 249.498 55.9089 249.956 56.1953C250.414 56.4766 250.771 56.8828 251.026 57.4141C251.281 57.9401 251.409 58.5599 251.409 59.2734C251.409 60.0339 251.253 60.7083 250.94 61.2969C250.633 61.8802 250.209 62.3359 249.667 62.6641C249.125 62.987 248.518 63.1484 247.847 63.1484C247.498 63.1484 247.162 63.0859 246.839 62.9609C246.516 62.8359 246.214 62.6536 245.932 62.4141V64.125ZM245.932 60.2891C245.932 60.7161 246.011 61.0964 246.167 61.4297C246.328 61.7578 246.563 62.0182 246.87 62.2109C247.177 62.3984 247.542 62.4922 247.964 62.4922C248.615 62.4922 249.11 62.2396 249.448 61.7344C249.787 61.2292 249.956 60.5365 249.956 59.6562C249.956 59.026 249.857 58.4948 249.659 58.0625C249.461 57.6302 249.201 57.3099 248.878 57.1016C248.555 56.888 248.201 56.7812 247.815 56.7812C247.201 56.7812 246.573 57.0911 245.932 57.7109V60.2891ZM256.979 58.2422C256.979 57.8516 256.943 57.5208 256.87 57.25C256.802 56.9792 256.662 56.7604 256.448 56.5938C256.24 56.4271 255.94 56.3438 255.55 56.3438C255.414 56.3438 255.248 56.3724 255.05 56.4297C254.852 56.487 254.677 56.5703 254.526 56.6797C254.38 56.7839 254.307 56.9062 254.307 57.0469C254.307 57.1042 254.318 57.1615 254.339 57.2188C254.36 57.2708 254.393 57.3385 254.44 57.4219C254.487 57.5 254.521 57.5677 254.542 57.625C254.563 57.6823 254.573 57.7422 254.573 57.8047C254.573 58.013 254.505 58.1875 254.37 58.3281C254.24 58.4635 254.071 58.5312 253.862 58.5312C253.602 58.5312 253.393 58.4349 253.237 58.2422C253.086 58.0495 253.011 57.8177 253.011 57.5469C253.011 57.1406 253.169 56.8047 253.487 56.5391C253.805 56.2734 254.188 56.0781 254.636 55.9531C255.089 55.8281 255.511 55.7656 255.901 55.7656C256.636 55.7656 257.182 55.875 257.542 56.0938C257.906 56.3073 258.146 56.6224 258.261 57.0391C258.38 57.4505 258.44 58.0286 258.44 58.7734L258.425 59.1641C258.419 59.2786 258.412 59.4688 258.401 59.7344C258.396 60 258.393 60.2448 258.393 60.4688C258.393 61.6406 258.516 62.2266 258.761 62.2266C258.938 62.2266 259.167 62.0469 259.448 61.6875L259.776 62.0391C259.547 62.4141 259.321 62.6953 259.097 62.8828C258.873 63.0651 258.578 63.1562 258.214 63.1562C257.87 63.1562 257.586 63.0495 257.362 62.8359C257.143 62.6172 257.024 62.3359 257.003 61.9922C256.669 62.3568 256.294 62.6432 255.878 62.8516C255.466 63.0547 255.029 63.1562 254.565 63.1562C254.242 63.1562 253.943 63.099 253.667 62.9844C253.396 62.8646 253.177 62.6875 253.011 62.4531C252.849 62.2188 252.768 61.9375 252.768 61.6094C252.768 61.1146 252.959 60.7031 253.339 60.375C253.719 60.0469 254.156 59.7969 254.651 59.625C255.146 59.4531 255.75 59.2812 256.464 59.1094C256.526 59.099 256.698 59.0573 256.979 58.9844V58.2422ZM256.979 59.4453C256.901 59.4714 256.802 59.5026 256.682 59.5391C256.235 59.6849 255.852 59.8255 255.534 59.9609C255.216 60.0911 254.932 60.2682 254.682 60.4922C254.432 60.7161 254.307 60.9792 254.307 61.2812C254.307 61.5885 254.391 61.8307 254.557 62.0078C254.729 62.1849 254.969 62.2734 255.276 62.2734C255.584 62.2734 255.88 62.1979 256.167 62.0469C256.453 61.8906 256.724 61.6875 256.979 61.4375V59.4453ZM262.847 60.5469C262.847 61.0781 262.865 61.4583 262.901 61.6875C262.938 61.9115 263.026 62.0755 263.167 62.1797C263.307 62.2786 263.544 62.3281 263.878 62.3281C264.076 62.3281 264.274 62.3099 264.472 62.2734C264.669 62.237 264.836 62.1979 264.972 62.1562L265.034 62.7266C264.768 62.8568 264.5 62.9609 264.229 63.0391C263.959 63.1172 263.633 63.1562 263.253 63.1562C262.748 63.1562 262.362 63.0729 262.097 62.9062C261.831 62.7396 261.646 62.4714 261.542 62.1016C261.438 61.7266 261.386 61.2005 261.386 60.5234V56.5625H260.222V56.2891C260.576 56.1484 260.873 55.9844 261.112 55.7969C261.357 55.6042 261.557 55.4062 261.714 55.2031C261.87 55 262.057 54.7318 262.276 54.3984C262.37 54.2474 262.443 54.1484 262.495 54.1016C262.547 54.0495 262.599 54.0234 262.651 54.0234C262.703 54.0234 262.745 54.0495 262.776 54.1016C262.813 54.1484 262.831 54.224 262.831 54.3281V55.9766H264.792V56.5625H262.847V60.5469ZM273.44 61.2734C273.44 61.6745 273.542 61.9896 273.745 62.2188C273.953 62.4427 274.248 62.5729 274.628 62.6094C274.628 62.6875 274.625 62.7656 274.62 62.8438C274.615 62.9167 274.612 62.9688 274.612 63H270.768C270.768 62.9688 270.766 62.9167 270.761 62.8438C270.755 62.7656 270.753 62.6875 270.753 62.6094C270.841 62.5677 271.013 62.5078 271.268 62.4297C271.466 62.3672 271.61 62.3099 271.698 62.2578C271.792 62.2005 271.862 62.1016 271.909 61.9609C271.961 61.8203 271.987 61.6094 271.987 61.3281V58.4922C271.987 57.9193 271.865 57.4635 271.62 57.125C271.38 56.7812 271.003 56.6094 270.487 56.6094C270.117 56.6094 269.758 56.7083 269.409 56.9062C269.065 57.099 268.748 57.349 268.456 57.6562V61.1797C268.456 61.6484 268.563 61.9922 268.776 62.2109C268.99 62.4297 269.339 62.5625 269.823 62.6094L269.815 63H265.651C265.651 62.9688 265.649 62.9167 265.643 62.8438C265.638 62.7656 265.636 62.6875 265.636 62.6094C266.547 62.5365 267.003 62.0599 267.003 61.1797V53.9062C266.951 53.8281 266.836 53.7344 266.659 53.625C266.482 53.5104 266.294 53.4089 266.097 53.3203C265.904 53.2318 265.761 53.1823 265.667 53.1719V52.8984L267.901 52.3047L268.456 52.25V57C268.867 56.5885 269.271 56.2812 269.667 56.0781C270.063 55.8698 270.521 55.7656 271.042 55.7656C271.766 55.7656 272.347 55.9974 272.784 56.4609C273.222 56.9193 273.44 57.6198 273.44 58.5625V61.2734ZM277.128 52.25C277.378 52.25 277.591 52.3385 277.768 52.5156C277.946 52.6927 278.034 52.9062 278.034 53.1562C278.034 53.4115 277.946 53.6276 277.768 53.8047C277.591 53.9766 277.378 54.0625 277.128 54.0625C276.873 54.0625 276.656 53.9766 276.479 53.8047C276.307 53.6276 276.222 53.4115 276.222 53.1562C276.222 52.9062 276.307 52.6927 276.479 52.5156C276.656 52.3385 276.873 52.25 277.128 52.25ZM276.503 57.3203C276.435 57.2005 276.307 57.0938 276.12 57C275.938 56.901 275.748 56.8203 275.55 56.7578C275.357 56.6901 275.261 56.6589 275.261 56.6641L275.276 56.3906L277.472 55.8594L277.956 55.8281V61.2812C277.956 61.4635 277.974 61.6354 278.011 61.7969C278.052 61.9583 278.172 62.1224 278.37 62.2891C278.573 62.4557 278.891 62.5625 279.323 62.6094C279.323 62.7812 279.321 62.9115 279.315 63H275.237C275.227 62.9062 275.222 62.776 275.222 62.6094L275.44 62.5469C275.669 62.4844 275.854 62.4219 275.995 62.3594C276.136 62.2969 276.255 62.2057 276.354 62.0859C276.453 61.9609 276.503 61.7943 276.503 61.5859V57.3203ZM283.565 62.5312C283.998 62.5312 284.443 62.4635 284.901 62.3281C285.068 62.2812 285.206 62.1823 285.315 62.0312C285.43 61.8802 285.55 61.6745 285.675 61.4141C285.753 61.2578 285.818 61.1354 285.87 61.0469C285.922 60.9583 285.979 60.8828 286.042 60.8203C286.13 60.8203 286.198 60.8229 286.245 60.8281L286.44 60.8359L286.214 63.0859C286.11 63.0755 285.904 63.0573 285.597 63.0312C285.289 63.0104 285.081 63 284.972 63H280.222L280.112 62.7422L284.62 56.4531H283.3C283.071 56.4531 282.883 56.4583 282.737 56.4688C282.591 56.474 282.453 56.4922 282.323 56.5234C282.13 56.5495 281.961 56.6276 281.815 56.7578C281.675 56.8828 281.516 57.0599 281.339 57.2891C281.235 57.4245 281.146 57.5339 281.073 57.6172C281 57.7005 280.925 57.7708 280.847 57.8281L280.495 57.8125L280.659 55.7734C280.893 55.862 281.11 55.9193 281.307 55.9453C281.505 55.9661 281.724 55.9766 281.964 55.9766H285.878L286.307 56.0078V56.4375L282.05 62.5312H283.565ZM288.925 58.8906C288.919 58.9427 288.917 59.0182 288.917 59.1172C288.917 59.7734 289.034 60.3229 289.268 60.7656C289.508 61.2031 289.826 61.5286 290.222 61.7422C290.623 61.9505 291.071 62.0547 291.565 62.0547C292.222 62.0547 292.854 61.8672 293.464 61.4922L293.69 61.7109C293.565 62.013 293.354 62.2734 293.057 62.4922C292.766 62.7109 292.432 62.8776 292.057 62.9922C291.688 63.1016 291.328 63.1562 290.979 63.1562C290.323 63.1562 289.732 63.0026 289.206 62.6953C288.685 62.388 288.276 61.9583 287.979 61.4062C287.688 60.8542 287.542 60.2214 287.542 59.5078C287.542 58.7839 287.701 58.138 288.018 57.5703C288.336 56.9974 288.758 56.5547 289.284 56.2422C289.815 55.9245 290.383 55.7656 290.987 55.7656C291.482 55.7656 291.927 55.8672 292.323 56.0703C292.724 56.2682 293.05 56.5495 293.3 56.9141C293.55 57.2734 293.709 57.6875 293.776 58.1562C293.834 58.3958 293.862 58.6172 293.862 58.8203V58.8906H288.925ZM291.737 58.3906C291.966 58.3802 292.159 58.3385 292.315 58.2656C292.279 57.6458 292.133 57.1615 291.878 56.8125C291.628 56.4635 291.271 56.2891 290.807 56.2891C290.469 56.2891 290.167 56.3906 289.901 56.5938C289.641 56.7969 289.43 57.0677 289.268 57.4062C289.107 57.7396 289.003 58.1068 288.956 58.5078L291.737 58.3906Z" fill="white"/>
<rect x="198.29" y="0.29" width="115.42" height="115.42" rx="57.71" stroke="#9B4819" stroke-width="0.58"/>
<rect x="400.93" y="148.22" width="106.72" height="106.124" rx="53.0619" fill="#9B4819"/>
<path d="M443.206 196.406C442.727 196.406 442.347 196.427 442.065 196.469C441.883 196.495 441.716 196.568 441.565 196.688C441.419 196.807 441.292 196.943 441.182 197.094C441.078 197.245 440.951 197.448 440.8 197.703C440.643 197.979 440.508 198.188 440.393 198.328H440.034L440.229 195.781C441.089 195.818 442.198 195.836 443.557 195.836L446.604 195.828H447.628C448.68 195.828 449.531 195.807 450.182 195.766L450.432 198.336H450.057C449.979 198.242 449.899 198.125 449.815 197.984C449.732 197.839 449.677 197.745 449.651 197.703C449.443 197.333 449.248 197.044 449.065 196.836C448.888 196.628 448.677 196.505 448.432 196.469C448.255 196.443 448.076 196.427 447.893 196.422C447.716 196.411 447.492 196.406 447.222 196.406H446.026V204.117C446.026 204.518 446.094 204.818 446.229 205.016C446.37 205.208 446.552 205.339 446.776 205.406C447.005 205.474 447.344 205.536 447.792 205.594C447.792 205.776 447.787 205.911 447.776 206H442.604L442.589 205.594C442.677 205.562 442.815 205.521 443.003 205.469C443.31 205.375 443.552 205.286 443.729 205.203C443.906 205.12 444.052 204.992 444.167 204.82C444.287 204.648 444.347 204.414 444.347 204.117V196.406H443.206ZM451.448 201.891C451.443 201.943 451.44 202.018 451.44 202.117C451.44 202.773 451.557 203.323 451.792 203.766C452.031 204.203 452.349 204.529 452.745 204.742C453.146 204.951 453.594 205.055 454.089 205.055C454.745 205.055 455.378 204.867 455.987 204.492L456.214 204.711C456.089 205.013 455.878 205.273 455.581 205.492C455.289 205.711 454.956 205.878 454.581 205.992C454.211 206.102 453.852 206.156 453.503 206.156C452.847 206.156 452.255 206.003 451.729 205.695C451.209 205.388 450.8 204.958 450.503 204.406C450.211 203.854 450.065 203.221 450.065 202.508C450.065 201.784 450.224 201.138 450.542 200.57C450.86 199.997 451.281 199.555 451.807 199.242C452.339 198.924 452.906 198.766 453.511 198.766C454.005 198.766 454.451 198.867 454.847 199.07C455.248 199.268 455.573 199.549 455.823 199.914C456.073 200.273 456.232 200.688 456.3 201.156C456.357 201.396 456.386 201.617 456.386 201.82V201.891H451.448ZM454.261 201.391C454.49 201.38 454.682 201.339 454.839 201.266C454.802 200.646 454.656 200.161 454.401 199.812C454.151 199.464 453.794 199.289 453.331 199.289C452.992 199.289 452.69 199.391 452.425 199.594C452.164 199.797 451.953 200.068 451.792 200.406C451.63 200.74 451.526 201.107 451.479 201.508L454.261 201.391ZM462.354 201.07C462.281 201.076 462.159 201.078 461.987 201.078C461.836 200.552 461.607 200.122 461.3 199.789C460.998 199.456 460.61 199.289 460.136 199.289C459.807 199.289 459.547 199.37 459.354 199.531C459.167 199.693 459.073 199.927 459.073 200.234C459.073 200.448 459.151 200.646 459.307 200.828C459.464 201.01 459.654 201.172 459.878 201.312C460.107 201.448 460.406 201.609 460.776 201.797C460.865 201.839 460.998 201.906 461.175 202C461.758 202.312 462.182 202.633 462.448 202.961C462.719 203.284 462.854 203.68 462.854 204.148C462.854 204.581 462.748 204.948 462.534 205.25C462.321 205.547 462.026 205.773 461.651 205.93C461.276 206.081 460.847 206.156 460.362 206.156C459.935 206.156 459.503 206.104 459.065 206C458.628 205.901 458.268 205.766 457.987 205.594V203.688C458.19 203.661 458.328 203.648 458.401 203.648C458.521 204.227 458.732 204.698 459.034 205.062C459.341 205.427 459.761 205.609 460.292 205.609C460.672 205.609 460.987 205.516 461.237 205.328C461.492 205.135 461.62 204.883 461.62 204.57C461.62 204.372 461.563 204.198 461.448 204.047C461.334 203.896 461.185 203.763 461.003 203.648C460.821 203.534 460.547 203.38 460.182 203.188C459.693 202.927 459.321 202.716 459.065 202.555C458.669 202.31 458.37 202.036 458.167 201.734C457.969 201.432 457.87 201.073 457.87 200.656C457.87 200.255 457.972 199.914 458.175 199.633C458.378 199.346 458.654 199.13 459.003 198.984C459.352 198.839 459.745 198.766 460.182 198.766C460.584 198.766 460.964 198.815 461.323 198.914C461.688 199.013 462.016 199.154 462.307 199.336L462.354 201.07ZM466.495 203.547C466.495 204.078 466.513 204.458 466.55 204.688C466.586 204.911 466.675 205.076 466.815 205.18C466.956 205.279 467.193 205.328 467.526 205.328C467.724 205.328 467.922 205.31 468.12 205.273C468.318 205.237 468.485 205.198 468.62 205.156L468.682 205.727C468.417 205.857 468.149 205.961 467.878 206.039C467.607 206.117 467.281 206.156 466.901 206.156C466.396 206.156 466.011 206.073 465.745 205.906C465.479 205.74 465.294 205.471 465.19 205.102C465.086 204.727 465.034 204.201 465.034 203.523V199.562H463.87V199.289C464.224 199.148 464.521 198.984 464.761 198.797C465.005 198.604 465.206 198.406 465.362 198.203C465.518 198 465.706 197.732 465.925 197.398C466.018 197.247 466.091 197.148 466.143 197.102C466.196 197.049 466.248 197.023 466.3 197.023C466.352 197.023 466.393 197.049 466.425 197.102C466.461 197.148 466.479 197.224 466.479 197.328V198.977H468.44V199.562H466.495V203.547Z" fill="white"/>
<rect x="396.29" y="143.29" width="115.42" height="115.42" rx="57.71" stroke="#9B4819" stroke-width="0.58"/>
</svg>
