<svg width="61" height="58" viewBox="0 0 61 58" fill="none" xmlns="http://www.w3.org/2000/svg">
<ellipse cx="32.6072" cy="31.2397" rx="27.7634" ry="26.3691" fill="#7F9995"/>
<path d="M51.6766 11.6099L8.88495 17.4388C8.88495 17.4388 19.9774 8.89216 30.0056 5.55009C39.469 2.39622 51.6766 11.6099 51.6766 11.6099Z" fill="#314028"/>
<path d="M9.01583 16.7115C6.81287 20.1681 5.06071 26.389 5.06071 26.389C5.06071 26.389 13.364 16.8536 20.0859 12.5148C26.3077 8.49881 37.4535 4.88214 37.4535 4.88214C37.4535 4.88214 30.5318 4.09951 26.2132 4.94959C22.3413 5.71173 20.0683 6.38889 16.7533 8.5359C13.0536 10.9321 11.3701 13.0176 9.01583 16.7115Z" fill="#314028"/>
<path d="M11.0908 13.9392C20.1257 6.10516 42.8337 3.11659 45.7951 8.22872" stroke="#FAFAFA" stroke-width="0.138817"/>
<path d="M9.70215 15.3346C19.5543 9.87906 44.5518 6.33818 47.8769 9.62411" stroke="#FAFAFA" stroke-width="0.138817"/>
<path d="M12.6876 16.1695L5.20181 26.3231L29.0493 14.6997L12.6876 16.1695Z" fill="#314028"/>
<path d="M6.3174 23.513C17.1894 16.3716 46.2829 8.44095 50.703 11.1021" stroke="#FAFAFA" stroke-width="0.138817"/>
<path d="M7.27319 19.8689C18.3922 12.7743 45.2769 7.22182 49.5626 10.4417" stroke="#FAFAFA" stroke-width="0.138817"/>
<path d="M32.678 31.5001C32.6619 31.4607 32.6382 31.4249 32.6082 31.3947C32.5781 31.3646 32.5424 31.3408 32.503 31.3246C32.4637 31.3085 32.4215 31.3004 32.379 31.3007C32.3364 31.3011 32.2944 31.3099 32.2553 31.3267C32.2162 31.3435 32.1809 31.3679 32.1513 31.3985C32.1218 31.4291 32.0987 31.4653 32.0833 31.5049C32.0679 31.5446 32.0606 31.5869 32.0617 31.6294C32.0629 31.672 32.0725 31.7138 32.09 31.7526L32.091 31.7553L32.0952 31.7649C32.122 31.8277 32.148 31.8907 32.1734 31.9541C32.4986 32.7594 32.7886 33.5784 33.0425 34.4089C33.503 35.923 33.9007 37.7201 33.7379 39.0084C33.52 40.7056 34.1326 41.8478 35.0836 42.334C36.0153 42.8104 37.1879 42.6045 37.9526 41.7841L38.6571 41.0282C38.8091 40.8651 39.0197 40.7691 39.2425 40.7613C39.4653 40.7534 39.6821 40.8344 39.8452 40.9864L40.2816 40.5183C39.9943 40.2505 39.6124 40.1079 39.22 40.1217C38.8276 40.1355 38.4567 40.3046 38.1889 40.5919L38.0633 40.7267C38.0335 40.6009 38.0346 40.4454 38.094 40.2628C38.2023 39.9289 38.5149 39.4827 39.2426 38.993C39.2777 38.9696 39.3078 38.9396 39.3312 38.9046C39.3546 38.8695 39.3709 38.8302 39.3791 38.7889C39.3873 38.7475 39.3873 38.705 39.379 38.6636C39.3707 38.6223 39.3543 38.583 39.3308 38.5481C39.3072 38.5131 39.277 38.4831 39.2419 38.4598C39.2068 38.4366 39.1674 38.4205 39.126 38.4125C39.0846 38.4045 39.042 38.4047 39.0008 38.4132C38.9595 38.4217 38.9203 38.4383 38.8854 38.4619C38.0872 38.9992 37.6528 39.5484 37.4851 40.0653C37.3372 40.5211 37.4044 40.9328 37.5872 41.237L37.4842 41.3475C36.9067 41.9671 36.0419 42.1051 35.3749 41.7638C34.7268 41.4327 34.1791 40.5964 34.3727 39.0896C34.5542 37.6534 34.116 35.7389 33.6549 34.2225C33.3953 33.3734 33.0988 32.536 32.7663 31.7127C32.7395 31.6467 32.7122 31.5807 32.6846 31.515L32.6799 31.5041L32.678 31.5001ZM40.4262 36.6042C40.802 37.1819 40.9612 37.8976 40.8594 38.4195L40.2306 38.2967C40.2943 37.9702 40.1944 37.4217 39.8895 36.9534C39.5932 36.4983 39.1342 36.1642 38.5093 36.1744L38.4985 35.5345C39.3966 35.5199 40.0418 36.0132 40.4262 36.6042Z" fill="#191919"/>
<path d="M24.5343 41.5461C28.549 39.3187 30.3918 34.9683 28.6502 31.8292C26.9086 28.6901 22.2422 27.9511 18.2274 30.1785C14.2126 32.4059 12.3698 36.7563 14.1114 39.8954C15.853 43.0345 20.5195 43.7736 24.5343 41.5461Z" stroke="#9B4819" stroke-width="4" stroke-linecap="round" stroke-linejoin="round"/>
<path d="M45.7846 29.757C41.7698 31.9845 37.1033 31.2454 35.3617 28.1063C33.6201 24.9672 35.4629 20.6168 39.4777 18.3894C43.4925 16.162 48.1589 16.901 49.9005 20.0401C51.6421 23.1792 49.7993 27.5296 45.7846 29.757Z" stroke="#9B4819" stroke-width="4" stroke-linecap="round" stroke-linejoin="round"/>
<path d="M9.39601 41.9401L13.8695 39.4582M54.1307 17.1209L49.6572 19.6028M25.8345 29.3891C25.4233 27.33 26.1306 24.6504 28.3673 23.4095C30.6041 22.1685 33.2519 22.9867 34.7814 24.4253" stroke="#9B4819" stroke-width="4" stroke-linecap="round" stroke-linejoin="round"/>
<path fill-rule="evenodd" clip-rule="evenodd" d="M44.5386 41.7168C43.609 41.674 42.4121 41.7777 41.4562 42.3218C41.074 42.5396 40.8569 42.8893 40.6372 43.2438C40.5758 43.3435 40.5136 43.443 40.4483 43.5406C40.3963 43.6172 40.3741 43.631 40.2824 43.6436C40.1662 43.6582 40.0497 43.6705 39.9331 43.6805C39.5178 43.7199 39.1074 43.7588 38.7427 44.0049C37.8305 44.6194 37.2057 45.6456 36.831 46.4974C36.5848 47.0557 36.0592 48.0326 36.4375 48.6426C36.8547 49.3152 38.2312 49.5301 38.9233 49.6349C40.2101 49.8303 41.9038 49.7452 43.5489 48.7248C45.194 47.7045 46.0228 46.225 46.4201 44.9863C46.6418 44.2923 47.0699 43.0184 46.6352 42.3175C46.2681 41.7256 45.128 41.744 44.5386 41.7168ZM41.3522 44.1514C41.2711 44.2711 41.145 44.4404 40.9619 44.5539C40.7788 44.6675 40.5711 44.7052 40.4279 44.7247C40.0824 44.7709 39.6523 44.7077 39.3528 44.9089C38.4872 45.4919 37.9466 46.5141 37.6157 47.4831C38.6949 47.2951 40.2179 46.6182 41.6803 45.7111C43.1427 44.804 44.426 43.7405 45.0739 42.8572C44.0587 42.723 42.9028 42.7532 41.9959 43.2695C41.6878 43.4445 41.5436 43.8671 41.3521 44.1502L41.3522 44.1514ZM38.4171 48.4193C39.6033 48.0944 40.9925 47.4221 42.2547 46.6392C43.5169 45.8563 44.7364 44.9106 45.5551 43.992C45.2336 45.5444 44.333 46.9548 42.9739 47.7977C41.6148 48.6407 39.9502 48.8214 38.4171 48.4193Z" fill="#4E0505"/>
<path d="M21.3333 39.6665C20.8722 39.6665 20.4389 39.579 20.0333 39.4039C19.6278 39.2288 19.275 38.9913 18.975 38.6915C18.675 38.3915 18.4376 38.0388 18.2627 37.6332C18.0878 37.2277 18.0002 36.7943 18 36.3332C18 35.8721 18.0876 35.4388 18.2627 35.0332C18.4378 34.6277 18.6752 34.2749 18.975 33.9749C19.275 33.6749 19.6278 33.4374 20.0333 33.2625C20.4389 33.0877 20.8722 33.0001 21.3333 32.9999C21.7944 32.9999 22.2278 33.0874 22.6333 33.2625C23.0389 33.4377 23.3917 33.6751 23.6917 33.9749C23.9917 34.2749 24.2292 34.6277 24.4043 35.0332C24.5794 35.4388 24.6669 35.8721 24.6667 36.3332C24.6667 36.7943 24.5791 37.2277 24.404 37.6332C24.2289 38.0388 23.9914 38.3915 23.6917 38.6915C23.3917 38.9915 23.0389 39.2291 22.6333 39.4042C22.2278 39.5793 21.7944 39.6668 21.3333 39.6665Z" fill="#191919"/>
<path d="M43.3333 27.6665C42.8722 27.6665 42.4389 27.579 42.0333 27.4039C41.6278 27.2288 41.275 26.9913 40.975 26.6915C40.675 26.3915 40.4376 26.0388 40.2627 25.6332C40.0878 25.2277 40.0002 24.7943 40 24.3332C40 23.8721 40.0876 23.4388 40.2627 23.0332C40.4378 22.6277 40.6752 22.2749 40.975 21.9749C41.275 21.6749 41.6278 21.4374 42.0333 21.2625C42.4389 21.0877 42.8722 21.0001 43.3333 20.9999C43.7944 20.9999 44.2278 21.0874 44.6333 21.2625C45.0389 21.4377 45.3917 21.6751 45.6917 21.9749C45.9917 22.2749 46.2292 22.6277 46.4043 23.0332C46.5794 23.4388 46.6669 23.8721 46.6667 24.3332C46.6667 24.7943 46.5791 25.2277 46.404 25.6332C46.2289 26.0388 45.9914 26.3915 45.6917 26.6915C45.3917 26.9915 45.0389 27.2291 44.6333 27.4042C44.2278 27.5793 43.7944 27.6668 43.3333 27.6665Z" fill="#191919"/>
</svg>
